<?xml version="1.0" standalone="no"?>
<!DOCTYPE svg PUBLIC "-//W3C//DTD SVG 1.1//EN" "http://www.w3.org/Graphics/SVG/1.1/DTD/svg11.dtd" >
<svg>
<metadata>
Created by FontForge 20090622 at Tue May 16 10:05:46 2017
 By deploy user
[c] Copyright 1993, 1998-2003, The Font Bureau, Inc. Based on a design by S.H. deRoos. All Rights Reserved.
</metadata>
<defs>
<font id="Nobel-ExtraLightItalic" horiz-adv-x="410" >
  <font-face 
    font-family="Nobel ExtraLightItalic"
    font-weight="200"
    font-style="italic"
    font-stretch="normal"
    units-per-em="1000"
    panose-1="2 0 6 6 3 0 0 9 0 4"
    ascent="800"
    descent="-200"
    x-height="401"
    cap-height="730"
    bbox="-110 -203 1122 920"
    underline-thickness="20"
    underline-position="-113"
    slope="-12"
    unicode-range="U+0020-U+FB02"
  />
<missing-glyph horiz-adv-x="500" 
 />
    <glyph glyph-name="fi" unicode="fi" horiz-adv-x="331" 
d="M301 593l-14 -80h-21l14 80h21zM104 401h68l-5 -20h-67l-92 -560h-21l92 560h-74l4 20h74l44 265q13 74 82 74h21l-3 -21h-22q-25 0 -39 -13t-20 -51zM269 401l-67 -401h-20l66 401h21z" />
    <glyph glyph-name="fl" unicode="fl" horiz-adv-x="331" 
d="M326 740l-124 -740h-20l123 740h21zM104 401h68l-5 -20h-67l-92 -560h-21l92 560h-74l4 20h74l44 265q13 74 82 74h21l-3 -21h-22q-25 0 -39 -13t-20 -51z" />
    <glyph glyph-name="f_f_l" unicode="ffl" horiz-adv-x="506" 
d="M501 740l-124 -740h-20l123 740h21zM-13 -179l92 560h-74l4 20h74l44 265q13 74 82 74h21l-3 -21h-22q-25 0 -39 -13t-20 -51l-42 -254h154l44 265q13 74 82 74h21l-3 -21h-22q-25 0 -39 -13t-20 -51l-42 -254h68l-5 -20h-67l-92 -560h-21l92 560h-154l-92 -560h-21z" />
    <glyph glyph-name="f_f_i" unicode="ffi" horiz-adv-x="506" 
d="M476 593l-14 -80h-21l14 80h21zM-13 -179l92 560h-74l4 20h74l44 265q13 74 82 74h21l-3 -21h-22q-25 0 -39 -13t-20 -51l-42 -254h154l44 265q13 74 82 74h21l-3 -21h-22q-25 0 -39 -13t-20 -51l-42 -254h68l-5 -20h-67l-92 -560h-21l92 560h-154l-92 -560h-21zM444 401
l-67 -401h-20l66 401h21z" />
    <glyph glyph-name="f_f" unicode="ff" horiz-adv-x="350" 
d="M-13 -179l92 560h-74l4 20h74l44 265q13 74 82 74h21l-3 -21h-22q-25 0 -39 -13t-20 -51l-42 -254h154l44 265q13 74 82 74h21l-3 -21h-22q-25 0 -39 -13t-20 -51l-42 -254h68l-5 -20h-67l-92 -560h-21l92 560h-154l-92 -560h-21z" />
    <glyph glyph-name=".notdef" horiz-adv-x="500" 
 />
    <glyph glyph-name=".null" horiz-adv-x="0" 
 />
    <glyph glyph-name="nonmarkingreturn" horiz-adv-x="333" 
 />
    <glyph glyph-name="space" unicode=" " horiz-adv-x="202" 
 />
    <glyph glyph-name="space" unicode="&#xa0;" horiz-adv-x="202" 
 />
    <glyph glyph-name="exclam" unicode="!" horiz-adv-x="181" 
d="M167 730l-87 -498l-26 -117h-12l16 117l87 498h22zM51 71l-13 -71h-22l13 71h22z" />
    <glyph glyph-name="quotedbl" unicode="&#x22;" horiz-adv-x="251" 
d="M252 730l-15 -77l-17 -80h-12l7 80l15 77h22zM153 730l-14 -77l-18 -80h-12l7 80l15 77h22z" />
    <glyph glyph-name="numbersign" unicode="#" horiz-adv-x="573" 
d="M209 504l69 226h22l-68 -226h192l69 226h22l-68 -226h135l-8 -21h-133l-68 -225h158l-8 -21h-156l-72 -237h-22l71 237h-192l-72 -237h-22l71 237h-136l8 21h134l68 225h-159l8 21h157zM226 483l-68 -225h192l68 225h-192z" />
    <glyph glyph-name="dollar" unicode="$" horiz-adv-x="470" 
d="M315 744q92 -11 139 -86l-18 -12q-42 67 -125 78l-59 -337l4 -3q84 -51 116.5 -97t32.5 -107q0 -85 -66.5 -139t-156.5 -54h-1l-13 -76h-20l2.5 13l4.5 25l5 28l1 11q-48 5 -92.5 27t-70.5 55l18 14q24 -31 64.5 -51.5t84.5 -24.5l65 367q-83 53 -112 96t-29 97
q0 81 56.5 129.5t131.5 48.5h18l10 56h20zM185 7q79 1 138.5 49t59.5 124q0 54 -30 96t-105 88zM292 726h-15q-65 0 -115.5 -43.5t-50.5 -114.5q0 -48 25.5 -85.5t97.5 -84.5z" />
    <glyph glyph-name="percent" unicode="%" horiz-adv-x="734" 
d="M92 503q0 95 52 166t120 71q55 0 85.5 -39t30.5 -99q0 -94 -52.5 -163.5t-120.5 -69.5q-58 0 -86.5 39t-28.5 95zM712 730l-665 -730h-26l665 730h26zM356 122q0 95 52 166t120 71q55 0 85.5 -39t30.5 -99q0 -94 -52.5 -163.5t-120.5 -69.5q-58 0 -86.5 39t-28.5 95z
M114 504q0 -53 23.5 -84.5t69.5 -31.5q61 0 106.5 63t45.5 153q0 52 -25 84t-70 32q-60 0 -105 -63.5t-45 -152.5zM378 123q0 -53 23.5 -84.5t69.5 -31.5q61 0 106.5 63t45.5 153q0 52 -25 84t-70 32q-61 0 -105.5 -63.5t-44.5 -152.5z" />
    <glyph glyph-name="ampersand" unicode="&#x26;" horiz-adv-x="624" 
d="M442 95q-70 -54 -125.5 -80.5t-118.5 -26.5q-81 0 -125.5 47.5t-44.5 119.5q0 143 203 245q-40 57 -59.5 97.5t-19.5 84.5q0 66 48.5 113t113.5 47q61 0 98 -37.5t37 -95.5q0 -60 -46.5 -112t-144.5 -104l188 -269q35 29 84 82l13 -16q-65 -65 -86 -82l78 -108h-27z
M248 408q181 94 181 201q0 49 -30.5 82t-85.5 33q-56 0 -98.5 -42t-42.5 -100q0 -71 76 -174zM431 111l-190 274q-99 -47 -146 -107.5t-47 -122.5q0 -65 42 -106.5t110 -41.5q102 0 231 104z" />
    <glyph glyph-name="quotesingle" unicode="'" horiz-adv-x="153" 
d="M154 730l-14 -77l-18 -80h-12l7 80l15 77h22z" />
    <glyph glyph-name="parenleft" unicode="(" horiz-adv-x="286" 
d="M352 784l-3 -20q-126 -91 -216 -247t-90 -343q0 -207 136 -357l-4 -20q-84 91 -119 181.5t-35 195.5q0 196 95.5 355.5t235.5 254.5z" />
    <glyph glyph-name="parenright" unicode=")" horiz-adv-x="286" 
d="M-66 -203l3 20q126 91 216 247t90 343q0 207 -136 357l4 20q84 -91 119 -181.5t35 -195.5q0 -196 -95.5 -355.5t-235.5 -254.5z" />
    <glyph glyph-name="asterisk" unicode="*" horiz-adv-x="393" 
d="M382 559l-7 -19l-134 47l2 -145h-21l2 145l-137 -47l-6 19l139 43l-88 117l16 12l84 -119l84 117l17 -11l-89 -116z" />
    <glyph glyph-name="plus" unicode="+" horiz-adv-x="483" 
d="M444 320h-193l-34 -195h-22l34 195h-194l4 20h194l35 197h22l-35 -197h193z" />
    <glyph glyph-name="comma" unicode="," horiz-adv-x="150" 
d="M37 71l-13 -71q-17 -92 -76 -150h-16q57 65 72 153l11 68h22z" />
    <glyph glyph-name="hyphen" unicode="-" horiz-adv-x="344" 
d="M255 242l-4 -22h-209l4 22h209z" />
    <glyph glyph-name="hyphen" unicode="&#xad;" horiz-adv-x="344" 
d="M255 242l-4 -22h-209l4 22h209z" />
    <glyph glyph-name="period" unicode="." horiz-adv-x="157" 
d="M37 71l-13 -71h-22l13 71h22z" />
    <glyph glyph-name="slash" unicode="/" horiz-adv-x="367" 
d="M379 730l-368 -730h-24l368 730h24z" />
    <glyph glyph-name="zero" unicode="0" horiz-adv-x="618" 
d="M585 461q0 -123 -43 -231.5t-119.5 -175t-166.5 -66.5q-105 0 -166.5 70t-61.5 210q0 121 42 229.5t119 176.5t169 68q104 0 165.5 -72t61.5 -209zM50 268q0 -129 55 -194.5t151 -65.5q85 0 156.5 64.5t111 168.5t39.5 220q0 127 -55.5 194t-149.5 67q-86 0 -158 -66.5
t-111 -170t-39 -217.5z" />
    <glyph glyph-name="one" unicode="1" horiz-adv-x="233" 
d="M223 730l-129 -730h-22l120 681q-58 -77 -144 -90l4 21q40 4 86.5 41.5t62.5 76.5h22z" />
    <glyph glyph-name="two" unicode="2" horiz-adv-x="502" 
d="M490 568q0 -60 -30 -112t-108 -124l-351 -310h395l-4 -22h-448l399 351q64 60 94.5 110t30.5 108q0 64 -43 108.5t-122 44.5q-153 0 -215 -148h-22q63 168 239 168q86 0 135.5 -50t49.5 -124z" />
    <glyph glyph-name="three" unicode="3" horiz-adv-x="544" 
d="M265 381h-76l3 20q78 0 87 1q94 10 145 59t51 118q0 70 -50.5 105.5t-121.5 35.5q-101 0 -171 -55l-14 17q77 60 185 60q81 0 137.5 -41.5t56.5 -121.5q0 -67 -42.5 -118t-122.5 -71q133 -45 133 -180q0 -99 -64 -161.5t-170 -62.5q-84 0 -153 39t-102 112l20 10
q29 -66 93.5 -102.5t141.5 -36.5q96 0 154 56.5t58 145.5q0 48 -19 83.5t-49 53.5t-57.5 26t-52.5 8z" />
    <glyph glyph-name="four" unicode="4" horiz-adv-x="525" 
d="M476 221l-3 -19h-121l-36 -202h-22l37 202h-342l4 13l449 515h3l-89 -509h120zM413 666l-389 -445h310z" />
    <glyph glyph-name="five" unicode="5" horiz-adv-x="588" 
d="M529 730l-4 -21h-356l-64 -288q81 79 173 79q106 0 164 -66.5t58 -163.5q0 -118 -78.5 -200t-194.5 -82q-76 0 -134.5 34.5t-90.5 86.5l16 13q78 -114 209 -114q105 0 178 72.5t73 196.5q0 85 -53 144t-144 59q-104 0 -187 -102l-17 8l75 344h377z" />
    <glyph glyph-name="six" unicode="6" horiz-adv-x="580" 
d="M517 280q0 -110 -84.5 -201t-204.5 -91q-97 0 -159.5 55t-62.5 153q0 80 39.5 168t99 158.5t122.5 125.5t116 82h32q-112 -65 -204 -161t-147 -207q42 58 106 90.5t129 32.5q99 0 158.5 -56.5t59.5 -148.5zM496 285q0 80 -54 130t-147 50q-102 0 -185 -77t-83 -185
q0 -90 52 -142.5t151 -52.5q114 0 190 87.5t76 189.5z" />
    <glyph glyph-name="seven" unicode="7" horiz-adv-x="504" 
d="M530 730l-511 -730h-26l497 709h-390l6 21h424z" />
    <glyph glyph-name="eight" unicode="8" horiz-adv-x="611" 
d="M209 404q-93 44 -93 152q0 79 58.5 133t167.5 54q102 0 159 -45t57 -120q0 -72 -42 -121.5t-112 -67.5q68 -24 104 -72.5t36 -113.5q0 -92 -78 -154t-203 -62q-106 0 -183.5 54.5t-77.5 145.5q0 82 55 141.5t152 75.5zM138 556q0 -67 47.5 -110t146.5 -43
q89 0 146.5 46.5t57.5 128.5q0 66 -51.5 104.5t-142.5 38.5q-99 0 -151.5 -47.5t-52.5 -117.5zM24 187q0 -82 71 -130t168 -48q116 0 187.5 55t71.5 139q0 82 -62.5 131.5t-174.5 53.5q-119 2 -190 -55t-71 -146z" />
    <glyph glyph-name="nine" unicode="9" horiz-adv-x="579" 
d="M552 525q0 -87 -40 -179t-99 -163t-119 -124t-109 -77l-4 20q93 54 179 147.5t132 192.5q-77 -119 -225 -119q-87 0 -153 60t-66 162q0 87 44 156.5t107.5 104t130.5 34.5q102 0 162 -61t60 -154zM530 524q0 89 -57 142t-147 53q-100 0 -178 -80t-78 -194
q0 -97 61.5 -149.5t144.5 -52.5q110 0 182 81.5t72 199.5z" />
    <glyph glyph-name="colon" unicode=":" horiz-adv-x="157" 
d="M100 430l-12 -71h-22l12 71h22zM37 71l-13 -71h-22l13 71h22z" />
    <glyph glyph-name="semicolon" unicode=";" horiz-adv-x="152" 
d="M100 430l-12 -70h-22l12 70h22zM36 67l-12 -67q-17 -91 -74 -148h-16q55 64 70 151l10 64h22z" />
    <glyph glyph-name="less" unicode="&#x3c;" horiz-adv-x="375" 
d="M342 545l-5 -26l-289 -197l220 -195l-4 -25l-235 209l4 25z" />
    <glyph glyph-name="equal" unicode="=" horiz-adv-x="482" 
d="M421 410l-5 -22h-347l5 22h347zM397 278l-4 -22h-347l5 22h346z" />
    <glyph glyph-name="greater" unicode="&#x3e;" horiz-adv-x="375" 
d="M19 102l5 25l289 198l-220 195l4 25l235 -209l-4 -25z" />
    <glyph glyph-name="question" unicode="?" horiz-adv-x="435" 
d="M422 591q0 -46 -29 -93.5t-95 -117.5q-62 -65 -90.5 -108.5t-37.5 -95.5l-10 -58h-22l10 58q9 54 37 98t99 121q70 74 93 114.5t23 86.5q0 52 -41.5 89t-102.5 37q-93 0 -151 -81l-17 11q61 90 168 90q74 0 120 -44.5t46 -106.5zM153 72l-13 -72h-22l13 72h22z" />
    <glyph glyph-name="at" unicode="@" horiz-adv-x="848" 
d="M553 240q-73 -68 -160 -68q-58 0 -96 29t-38 88q0 68 53 102t145 34h96v42q0 102 -115 102q-70 0 -132 -32l-9 19q66 33 142 33q136 0 136 -121v-230q0 -57 63 -57q53 0 91 57t38 157q0 139 -96 233t-253 94q-146 0 -247.5 -104.5t-101.5 -252.5t101.5 -252.5
t247.5 -104.5q80 0 148 31l9 -19q-70 -32 -157 -32q-155 0 -263 110t-108 267t108 267t263 110q167 0 269 -99.5t102 -247.5q0 -111 -44.5 -172.5t-107.5 -61.5q-44 0 -64 22t-20 57zM553 264v141h-96q-81 0 -128.5 -28.5t-47.5 -86.5q0 -49 31.5 -73.5t81.5 -24.5
q84 0 159 72z" />
    <glyph glyph-name="A" unicode="A" horiz-adv-x="583" 
d="M-33 0l387 748h14l131 -748h-22l-51 290h-285l-150 -290h-24zM151 310h271l-68 393z" />
    <glyph glyph-name="B" unicode="B" horiz-adv-x="581" 
d="M506 571q0 -67 -38 -118.5t-110 -67.5q139 -27 139 -165q0 -61 -22.5 -105.5t-62 -68.5t-85 -35t-99.5 -11h-207l124 730h161q99 0 149.5 -42.5t50.5 -116.5zM486 573q0 61 -46.5 99.5t-133.5 38.5h-144l-53 -317h181q90 0 143 49.5t53 129.5zM477 211q0 84 -47.5 123.5
t-150.5 39.5h-173l-60 -354h179q113 0 182.5 47t69.5 144z" />
    <glyph glyph-name="C" unicode="C" horiz-adv-x="697" 
d="M660 603q-34 57 -93 88t-135 31q-83 0 -154 -36.5t-116 -95.5t-70.5 -130t-25.5 -143q0 -137 84.5 -223t197.5 -86q138 0 242 98l14 -16q-108 -102 -258 -102q-121 0 -211 91t-90 238q0 76 26.5 150.5t74.5 136.5t123 100t163 38q86 0 149.5 -35t96.5 -93z" />
    <glyph glyph-name="D" unicode="D" horiz-adv-x="623" 
d="M140 0h-119l125 730h111q149 0 240 -85.5t91 -223.5q0 -100 -37 -181.5t-99.5 -133t-142.5 -79t-169 -27.5zM256 710h-93l-117 -690h94q116 0 211 44.5t155.5 137.5t60.5 219q0 129 -85.5 209t-225.5 80z" />
    <glyph glyph-name="E" unicode="E" horiz-adv-x="497" 
d="M491 730l-3 -20h-326l-53 -315h281l-3 -20h-281l-60 -355h342l-3 -20h-364l124 730h346z" />
    <glyph glyph-name="F" unicode="F" horiz-adv-x="425" 
d="M453 730l-3 -19h-288l-54 -321h256l-3 -19h-256l-63 -371h-21l124 730h308z" />
    <glyph glyph-name="G" unicode="G" horiz-adv-x="795" 
d="M439 723q-161 0 -266.5 -120.5t-105.5 -295.5q0 -132 85 -215.5t207 -83.5q117 0 211 62.5t143 183.5h-248v20h279q-54 -145 -156 -215.5t-229 -70.5q-131 0 -222 88.5t-91 230.5q0 186 112.5 311t280.5 125q189 0 283 -132l-17 -13q-88 125 -266 125z" />
    <glyph glyph-name="H" unicode="H" horiz-adv-x="662" 
d="M644 730l-124 -730h-21l65 379h-458l-63 -379h-22l124 730h21l-57 -331h458l56 331h21z" />
    <glyph glyph-name="I" unicode="I" horiz-adv-x="188" 
d="M166 730l-124 -730h-21l124 730h21z" />
    <glyph glyph-name="J" unicode="J" horiz-adv-x="318" 
d="M306 730l-94 -549q-32 -187 -216 -187h-39l6 20h39q73 0 124 42t65 125l94 549h21z" />
    <glyph glyph-name="K" unicode="K" horiz-adv-x="511" 
d="M511 730l-332 -312l228 -418h-23l-221 403l-61 -56l-60 -347h-21l124 730h21l-61 -355l378 355h28z" />
    <glyph glyph-name="L" unicode="L" horiz-adv-x="483" 
d="M396 20l-2 -20h-373l124 730h21l-120 -710h350z" />
    <glyph glyph-name="M" unicode="M" horiz-adv-x="724" 
d="M684 730h20l-123 -730h-21l115 685l-319 -391h-15l-182 395l-117 -689h-21l124 730h19l187 -410z" />
    <glyph glyph-name="N" unicode="N" horiz-adv-x="718" 
d="M695 730l-122 -730h-17l-399 692l-116 -692h-21l122 730h17l400 -693l115 693h21z" />
    <glyph glyph-name="O" unicode="O" horiz-adv-x="780" 
d="M45 307q0 114 48 213t136 160.5t197 61.5q131 0 220 -93t89 -226q0 -176 -108.5 -305.5t-272.5 -129.5q-134 0 -221.5 92.5t-87.5 226.5zM354 8q155 0 257.5 124t102.5 291q0 125 -83 212t-205 87q-103 0 -186.5 -59.5t-128.5 -154t-45 -201.5q0 -124 81.5 -211.5
t206.5 -87.5z" />
    <glyph glyph-name="P" unicode="P" horiz-adv-x="498" 
d="M236 329h-138l-57 -329h-21l124 730h121q227 0 227 -176q0 -97 -67 -161t-189 -64zM258 710h-96l-61 -361h132q117 0 177.5 59t60.5 148q0 154 -213 154z" />
    <glyph glyph-name="Q" unicode="Q" horiz-adv-x="780" 
d="M529 35q35 -30 60 -40l-21 -12q-33 21 -58 42q-71 -37 -156 -37q-134 0 -221.5 92.5t-87.5 226.5q0 114 48 213t136 160.5t197 61.5q131 0 220 -93t89 -226q0 -122 -55.5 -227.5t-150.5 -160.5zM511 48q93 51 148 153.5t55 221.5q0 124 -83 211.5t-205 87.5
q-155 0 -257.5 -124t-102.5 -291q0 -124 81.5 -211.5t206.5 -87.5q74 0 139 31q-30 31 -49 70l18 4q17 -35 49 -65z" />
    <glyph glyph-name="R" unicode="R" horiz-adv-x="507" 
d="M41 0h-21l124 730h118q230 0 230 -177q0 -93 -68.5 -157.5t-196.5 -64.5h-80l241 -331h-27l-253 351h119q114 0 179 56t65 149q0 154 -216 154h-93z" />
    <glyph glyph-name="S" unicode="S" horiz-adv-x="457" 
d="M419 646q-48 80 -149 80q-66 0 -114.5 -43.5t-48.5 -114.5q0 -51 28.5 -91t110.5 -93q80 -52 111.5 -98t31.5 -106q0 -42 -13.5 -76t-34.5 -55.5t-49 -35.5t-56 -20t-56 -6q-57 0 -103.5 22.5t-75.5 59.5l14 15q27 -34 70.5 -55.5t94.5 -21.5q74 0 131 43.5t57 129.5
q0 54 -30 96t-104 90q-88 57 -118.5 101.5t-30.5 100.5q0 81 55 129.5t130 48.5q112 0 166 -88z" />
    <glyph glyph-name="T" unicode="T" horiz-adv-x="465" 
d="M501 730l-4 -20h-191l-121 -710h-21l121 710h-196l4 20h408z" />
    <glyph glyph-name="U" unicode="U" horiz-adv-x="640" 
d="M627 730l-81 -477q-21 -124 -98.5 -194.5t-174.5 -70.5q-104 0 -169 75t-42 209l77 458h22l-77 -461q-10 -63 1 -113.5t39 -82t66 -48t83 -16.5q91 0 161.5 65.5t90.5 182.5l80 473h22z" />
    <glyph glyph-name="V" unicode="V" horiz-adv-x="646" 
d="M676 730l-407 -730h-17l-160 730h21l153 -694l386 694h24z" />
    <glyph glyph-name="W" unicode="W" horiz-adv-x="900" 
d="M915 730l-337 -730h-14l-61 675l-294 -675h-12l-105 730h21l97 -678l296 678h12l62 -678l312 678h23z" />
    <glyph glyph-name="X" unicode="X" horiz-adv-x="655" 
d="M314 400l-174 330h23l165 -313l270 313h26l-286 -332l211 -398h-23l-202 381l-328 -381h-26z" />
    <glyph glyph-name="Y" unicode="Y" horiz-adv-x="599" 
d="M624 730l-319 -371l-58 -359h-21l60 360l-192 370h22l183 -351l301 351h24z" />
    <glyph glyph-name="Z" unicode="Z" horiz-adv-x="607" 
d="M615 730l-585 -710h467l-3 -20h-507l587 710h-418l2 20h457z" />
    <glyph glyph-name="bracketleft" unicode="[" horiz-adv-x="228" 
d="M267 730l-4 -20h-105l-153 -869h106l-5 -20h-128l162 909h127z" />
    <glyph glyph-name="backslash" unicode="\" horiz-adv-x="379" 
d="M257 0h-22l-112 730h22z" />
    <glyph glyph-name="bracketright" unicode="]" horiz-adv-x="225" 
d="M217 730l-162 -909h-127l4 20h105l153 869h-106l5 20h128z" />
    <glyph glyph-name="asciicircum" unicode="^" horiz-adv-x="458" 
d="M414 369h-20l-110 335l-229 -335h-21l246 361h16z" />
    <glyph glyph-name="underscore" unicode="_" horiz-adv-x="500" 
d="M421 -89h-509l4 22h509z" />
    <glyph glyph-name="grave" unicode="`" 
d="M245 484h-22l-96 130h27z" />
    <glyph glyph-name="a" unicode="a" horiz-adv-x="394" 
d="M324 280l-43 -280h-21l8 46q-79 -58 -159 -58q-49 0 -82 29.5t-33 80.5q0 67 56 109t171 42h79l5 31q9 57 -18 85t-85 28q-59 0 -115 -35l-7 18q63 37 127 37q68 0 97 -35.5t20 -97.5zM297 229h-76q-100 0 -153 -34t-53 -97q0 -38 24 -64t70 -26q72 0 163 61z" />
    <glyph glyph-name="b" unicode="b" horiz-adv-x="462" 
d="M188 -12q-50 0 -89 27t-62 70l-13 -85h-22l125 740h21l-74 -441q21 48 70.5 81t99.5 33q73 0 116.5 -52.5t43.5 -121.5q0 -119 -63.5 -185t-152.5 -66zM243 392q-65 0 -118.5 -52.5t-69.5 -142.5l-14 -81q46 -107 154 -107q82 0 135.5 64.5t53.5 156.5q0 74 -39.5 118
t-101.5 44z" />
    <glyph glyph-name="c" unicode="c" horiz-adv-x="453" 
d="M353 63q-68 -75 -165 -75q-85 0 -132.5 53.5t-47.5 129.5q0 97 65 169.5t160 72.5q113 0 157 -91l-18 -10q-38 81 -139 81q-86 0 -145 -67t-59 -155q0 -67 42.5 -115t116.5 -48q90 0 149 69z" />
    <glyph glyph-name="d" unicode="d" horiz-adv-x="462" 
d="M217 413q93 0 151 -93l72 420h21l-128 -740h-21l17 94q-20 -47 -68.5 -76.5t-98.5 -29.5q-75 0 -119 49t-44 117q0 119 64.5 189t153.5 70zM163 9q66 0 118.5 48.5t66.5 138.5l15 93q-46 103 -152 103q-82 0 -136.5 -68.5t-54.5 -160.5q0 -74 39.5 -114t103.5 -40z" />
    <glyph glyph-name="e" unicode="e" horiz-adv-x="469" 
d="M395 231v-17h-361q-4 -26 -4 -41q0 -66 42 -115.5t116 -49.5q89 0 150 52l14 -15q-65 -58 -164 -58q-84 0 -131.5 55t-47.5 131q0 97 63.5 168.5t157.5 71.5q82 0 123.5 -54.5t41.5 -127.5zM373 235q-2 72 -39.5 115t-104.5 43q-66 0 -118.5 -44.5t-71.5 -113.5h334z" />
    <glyph glyph-name="f" unicode="f" horiz-adv-x="175" 
d="M104 401h68l-5 -20h-67l-92 -560h-21l92 560h-74l4 20h74l44 265q13 74 82 74h21l-3 -21h-22q-25 0 -39 -13t-20 -51z" />
    <glyph glyph-name="g" unicode="g" horiz-adv-x="462" 
d="M337 -8q-15 -91 -68 -137t-134 -46q-105 0 -165 86l17 14q51 -80 151 -80q65 0 115 38t64 129l15 98q-20 -47 -68.5 -76.5t-98.5 -29.5q-75 0 -119 49t-44 117q0 119 64 189t153 70q94 0 151 -93l14 81h20zM165 9q67 0 119.5 48.5t66.5 138.5l15 93q-48 103 -153 103
q-82 0 -136 -68t-54 -161q0 -73 39.5 -113.5t102.5 -40.5z" />
    <glyph glyph-name="h" unicode="h" horiz-adv-x="427" 
d="M307 0h-20l42 254q10 62 -18.5 101t-95.5 39q-52 0 -96 -39.5t-51 -82.5l-45 -272h-21l123 740h21l-69 -409q22 41 61 61.5t80 20.5q76 0 110 -46t23 -108z" />
    <glyph glyph-name="i" unicode="i" horiz-adv-x="156" 
d="M126 593l-14 -80h-21l14 80h21zM94 401l-67 -401h-20l66 401h21z" />
    <glyph glyph-name="j" unicode="j" horiz-adv-x="149" 
d="M73 401h21l-89 -531q-10 -58 -75 -58h-16l6 21h17q41 0 49 45zM126 593l-14 -80h-21l14 80h21z" />
    <glyph glyph-name="k" unicode="k" horiz-adv-x="383" 
d="M351 401l-218 -183l170 -218h-26l-161 205l-62 -50l-27 -155h-20l123 740h21l-93 -558l264 219h29z" />
    <glyph glyph-name="l" unicode="l" horiz-adv-x="156" 
d="M151 740l-124 -740h-20l123 740h21z" />
    <glyph glyph-name="m" unicode="m" horiz-adv-x="685" 
d="M338 313q13 33 52.5 66.5t92.5 33.5q76 0 106.5 -45.5t19.5 -108.5l-43 -259h-21l43 254q10 63 -16 101.5t-92 38.5q-52 0 -92.5 -39t-47.5 -83l-46 -272h-20l42 254q10 63 -15.5 101.5t-91.5 38.5q-53 0 -93 -39t-47 -83l-46 -272h-21l68 401h20l-13 -70
q22 41 58.5 61.5t76.5 20.5q58 0 89 -27.5t37 -72.5z" />
    <glyph glyph-name="n" unicode="n" horiz-adv-x="427" 
d="M307 0h-20l43 255q10 62 -18.5 101t-95.5 39q-52 0 -95.5 -39.5t-50.5 -82.5l-47 -273h-21l69 401h20l-13 -69q22 41 61 61.5t80 20.5q76 0 110 -46t23 -108z" />
    <glyph glyph-name="o" unicode="o" horiz-adv-x="480" 
d="M188 -12q-84 0 -132 55.5t-48 131.5q0 96 65 167t160 71q85 0 131.5 -56.5t46.5 -131.5q0 -97 -65.5 -167t-157.5 -70zM233 393q-86 0 -145 -65.5t-59 -152.5q0 -67 42.5 -117t116.5 -50q83 0 142.5 64t59.5 153q0 67 -41 117.5t-116 50.5z" />
    <glyph glyph-name="p" unicode="p" horiz-adv-x="462" 
d="M188 -12q-98 0 -152 85l-44 -252h-20l98 580h20l-16 -102q21 48 69.5 81t99.5 33q73 0 117 -52.5t44 -121.5q0 -119 -63.5 -185t-152.5 -66zM242 392q-66 0 -119.5 -52.5t-67.5 -142.5l-15 -93q44 -95 155 -95q82 0 135.5 64.5t53.5 156.5q0 74 -40 118t-102 44z" />
    <glyph glyph-name="q" unicode="q" horiz-adv-x="462" 
d="M219 413q50 0 88.5 -30t61.5 -75l16 93h21l-99 -580h-20l45 273q-20 -47 -68.5 -76.5t-98.5 -29.5q-75 0 -119 49t-44 117q0 119 64 189t153 70zM165 9q66 0 118 49t68 138l14 81q-50 115 -152 115q-82 0 -136 -68t-54 -161q0 -73 39.5 -113.5t102.5 -40.5z" />
    <glyph glyph-name="r" unicode="r" horiz-adv-x="274" 
d="M267 377l-14 -15q-29 31 -67 31q-42 0 -77.5 -36.5t-43.5 -83.5l-44 -273h-21l67 401h20l-12 -62q15 30 45 52t66 22q49 0 81 -36z" />
    <glyph glyph-name="s" unicode="s" horiz-adv-x="345" 
d="M-1 54q58 -46 132 -46q47 0 77.5 22t30.5 65q0 10 -1.5 18.5t-6 16l-8 13t-12 11.5t-13 9.5t-15.5 9t-15.5 8t-17 8t-16.5 7.5q-49 23 -75 47.5t-26 66.5q0 51 38 78t93 27q81 0 120 -53l-16 -12q-31 45 -104 45q-46 0 -78 -21.5t-32 -63.5q0 -19 6.5 -34t21.5 -27
t26.5 -18.5t33.5 -16.5q32 -15 44.5 -21.5t34.5 -22t30.5 -33.5t8.5 -42q0 -52 -36.5 -79.5t-92.5 -27.5q-78 0 -144 50z" />
    <glyph glyph-name="t" unicode="t" horiz-adv-x="205" 
d="M75 381h-63l4 20h63l26 162l25 21l-30 -183h72l-5 -20h-71l-49 -295q-6 -32 2 -48.5t37 -16.5h25l-12 -21h-13q-36 0 -52 22.5t-9 63.5z" />
    <glyph glyph-name="u" unicode="u" horiz-adv-x="427" 
d="M64 401h21l-42 -254q-10 -62 18.5 -101t95.5 -39q53 0 96 38t50 81l46 275h20l-67 -401h-21l13 67q-22 -40 -60.5 -59.5t-79.5 -19.5q-76 0 -109.5 45.5t-22.5 108.5z" />
    <glyph glyph-name="v" unicode="v" horiz-adv-x="382" 
d="M366 401l-238 -423l-102 423h22l87 -370l207 370h24z" />
    <glyph glyph-name="w" unicode="w" horiz-adv-x="593" 
d="M292 342l-176 -364l-90 423h22l75 -364l179 368q63 -368 63 -369l193 365h23l-226 -423z" />
    <glyph glyph-name="x" unicode="x" horiz-adv-x="378" 
d="M170 215l117 -215h-25l-106 198l-171 -198h-25l186 216l-99 185h23l91 -168l146 168h25z" />
    <glyph glyph-name="y" unicode="y" horiz-adv-x="373" 
d="M356 401l-287 -522q-38 -68 -92 -68q-27 0 -47 13l5 22q18 -15 49 -15q37 0 74 68l60 110l-95 392h23l86 -369l202 369h22z" />
    <glyph glyph-name="z" unicode="z" horiz-adv-x="397" 
d="M369 401l-357 -381h278l-3 -20h-322l359 381h-262l4 20h303z" />
    <glyph glyph-name="braceleft" unicode="{" horiz-adv-x="264" 
d="M328 749l-4 -24q-73 -35 -98.5 -77t-45.5 -154q-19 -111 -38 -152.5t-69 -56.5q50 -15 50 -88q0 -29 -14.5 -117.5t-14.5 -121.5q0 -44 15.5 -65.5t59.5 -46.5l-4 -24q-51 26 -71.5 55t-20.5 80q0 41 15 126t15 116q0 39 -16.5 58t-57.5 19l3 20q26 0 45 8.5t31.5 21.5
t22 39t15 50t12.5 67q23 131 54 180.5t116 86.5z" />
    <glyph glyph-name="bar" unicode="|" horiz-adv-x="195" 
d="M172 730l-162 -909h-22l162 909h22z" />
    <glyph glyph-name="braceright" unicode="}" horiz-adv-x="264" 
d="M214 295l-3 -20q-26 0 -45 -8.5t-31.5 -21.5t-22 -39t-15 -50t-12.5 -67q-23 -131 -54 -180.5t-116 -86.5l4 24q73 35 98.5 77t45.5 154q19 111 38 152.5t69 56.5q-50 15 -50 88q0 30 14.5 118t14.5 121q0 44 -15.5 65.5t-59.5 46.5l4 24q51 -26 71.5 -55t20.5 -80
q0 -41 -15 -126t-15 -116q0 -39 16.5 -58t57.5 -19z" />
    <glyph glyph-name="asciitilde" unicode="~" horiz-adv-x="444" 
d="M373 428q-9 -123 -77 -123q-17 0 -34 9t-26.5 17.5t-27.5 26.5q-39 41 -58 48q-10 4 -20 4q-29 0 -41.5 -25.5t-15.5 -74.5h-22q7 120 81 120q17 0 35 -10t26.5 -18l28.5 -28q47 -49 75 -49q47 0 54 103h22z" />
    <glyph glyph-name="exclamdown" unicode="&#xa1;" horiz-adv-x="181" 
d="M130 659l13 71h22l-13 -71h-22zM14 0l87 498l26 117h12l-16 -117l-87 -498h-22z" />
    <glyph glyph-name="cent" unicode="&#xa2;" horiz-adv-x="464" 
d="M195 -12l-13 -77h-22l14 78q-78 9 -121.5 62.5t-43.5 123.5q0 96 69 167t170 71h2l12 72h22l-12 -73q100 -10 143 -90l-19 -10q-35 70 -128 79l-69 -382h1q96 0 158 68l17 -14q-72 -75 -175 -75h-5zM177 10l69 382q-91 0 -153 -65t-62 -152q0 -61 38.5 -109.5
t107.5 -55.5z" />
    <glyph glyph-name="sterling" unicode="&#xa3;" horiz-adv-x="529" 
d="M504 568h-22q1 4 1 12q0 63 -38.5 102.5t-108.5 39.5q-89 0 -139.5 -53t-50.5 -146q0 -28 9 -58.5t18.5 -49t29.5 -54.5h201l-3 -20h-186q28 -50 39 -96h132l-4 -20h-125q1 -5 1 -15q0 -68 -34 -127l15.5 -15t15.5 -14.5t13.5 -12.5t14.5 -11.5t13.5 -8.5t15 -7.5
l15 -3.5t16.5 -2q83 0 97 129h22q-17 -149 -123 -149q-24 0 -46.5 11t-35.5 22.5t-37 35.5l-8 8q-55 -77 -124 -77q-33 0 -57 17.5t-24 52.5t28.5 59t73.5 24q50 0 99 -44q28 53 28 109q0 13 -1 19h-161l4 20h153q-9 38 -41 96h-98l3 20h83q-55 95 -55 162q0 102 56.5 160.5
t156.5 58.5q77 0 123 -43.5t46 -112.5zM197 79q-47 42 -88 42q-36 0 -58 -17t-22 -45q0 -24 16 -37.5t45 -13.5q59 0 107 71z" />
    <glyph glyph-name="currency" unicode="&#xa4;" horiz-adv-x="550" 
d="M561 617l-19 -9q-39 114 -143 114q-93 0 -167.5 -82.5t-109.5 -209.5h282l-3 -20h-284q-11 -47 -16 -106h281l-3 -20h-279q-1 -10 -1 -30q0 -109 41 -177.5t124 -68.5q110 0 197 117l17 -13q-96 -124 -217 -124q-90 0 -137 74t-47 189v33h-70l3 20h68q3 53 15 106h-64
l3 20h67q37 138 117.5 225t180.5 87q124 0 164 -125z" />
    <glyph glyph-name="yen" unicode="&#xa5;" horiz-adv-x="615" 
d="M243 0h-22l22 124h-208l3 20h208l17 96h-208l4 20h208l17 97l-202 373h25l188 -346l3 -6l6 6l309 346h24l-331 -370l-17 -100h198l-4 -20h-198l-17 -96h198l-3 -20h-198z" />
    <glyph glyph-name="brokenbar" unicode="&#xa6;" horiz-adv-x="186" 
d="M105 351h-22l67 379h22zM12 -179h-22l67 379h22z" />
    <glyph glyph-name="section" unicode="&#xa7;" horiz-adv-x="616" 
d="M566 664l-15 -15q-65 73 -183 73q-82 0 -138 -40t-56 -100q0 -40 30.5 -66.5t87.5 -48.5q17 -7 69 -24.5t75 -26.5q59 -24 92 -58.5t33 -88.5q0 -125 -167 -209q45 -35 45 -84q0 -74 -62 -120t-158 -46q-126 0 -194 78l15 15q65 -73 183 -73q82 0 138 40t56 100
q0 38 -27 63.5t-78 46.5q-26 11 -83.5 30t-83.5 30q-55 24 -85 57.5t-30 85.5q0 126 168 208q-46 36 -46 85q0 74 62 120t158 46q126 0 194 -78zM539 264q0 49 -29.5 80t-82.5 53q-24 10 -74.5 26.5t-71.5 24.5q-39 14 -65 30q-164 -76 -164 -194q0 -79 103 -125
q23 -10 103.5 -36.5t116.5 -49.5q164 77 164 191z" />
    <glyph glyph-name="dieresis" unicode="&#xa8;" 
d="M333 568l-15 -84h-22l15 84h22zM163 568l-15 -84h-22l15 84h22z" />
    <glyph glyph-name="copyright" unicode="&#xa9;" horiz-adv-x="844" 
d="M45 365q0 156 110.5 266.5t266.5 110.5t266.5 -110.5t110.5 -266.5t-110.5 -266.5t-266.5 -110.5t-266.5 110.5t-110.5 266.5zM777 365q0 147 -104 252t-251 105t-251 -105t-104 -252t104 -252t251 -105t251 105t104 252zM586 217q-65 -76 -164 -76q-90 0 -151.5 65
t-61.5 161q0 93 59.5 159.5t149.5 66.5q49 0 91 -18t68 -50l-17 -14q-51 62 -142 62q-81 0 -134 -61t-53 -145q0 -88 55 -147t136 -59q85 0 148 70z" />
    <glyph glyph-name="ordfeminine" unicode="&#xaa;" horiz-adv-x="403" 
d="M374 641l-39 -241h-22l7 40q-71 -50 -144 -50q-44 0 -74 25t-30 69q0 55 50 88.5t154 33.5h73l1 6l2 14l1 7q7 45 -17.5 67.5t-76.5 22.5q-59 0 -103 -29l-8 18q45 30 118 30q61 0 88 -30.5t20 -70.5zM332 336l-3 -20h-266l3 20h266zM345 586h-69q-182 0 -182 -102
q0 -31 20.5 -52.5t61.5 -21.5q65 0 148 50z" />
    <glyph glyph-name="guillemotleft" unicode="&#xab;" horiz-adv-x="291" 
d="M274 331l-6 -23l-136 -106l96 -98l-2 -24l-120 114l4 22zM162 331l-6 -23l-136 -106l96 -98l-2 -24l-120 114l4 22z" />
    <glyph glyph-name="logicalnot" unicode="&#xac;" horiz-adv-x="730" 
d="M387 710h-44v20h44v-20zM730 343h-22v44h22v-44zM387 343h-44v44h44v-44zM22 343h-22v44h22v-44zM387 0h-44v20h44v-20z" />
    <glyph glyph-name="registered" unicode="&#xae;" horiz-adv-x="844" 
d="M45 365q0 156 110.5 266.5t266.5 110.5t266.5 -110.5t110.5 -266.5t-110.5 -266.5t-266.5 -110.5t-266.5 110.5t-110.5 266.5zM777 365q0 147 -104 252t-251 105t-251 -105t-104 -252t104 -252t251 -105t251 105t104 252zM315 155v438h97q60 0 100.5 -33t40.5 -88
q0 -61 -42.5 -92.5t-106.5 -31.5h-12l173 -193h-28l-192 213h61q53 0 89 26.5t36 77.5q0 46 -34 73.5t-83 27.5h-77v-418h-22z" />
    <glyph glyph-name="macron" unicode="&#xaf;" 
d="M350 520v-20h-260v20h260z" />
    <glyph glyph-name="macron" unicode="&#x2c9;" 
d="M350 520v-20h-260v20h260z" />
    <glyph glyph-name="degree" unicode="&#xb0;" horiz-adv-x="349" 
d="M336 601q0 -59 -41.5 -100.5t-100.5 -41.5t-100 41.5t-41 100.5t41.5 100t99.5 41q59 0 100.5 -41t41.5 -100zM318 601q0 52 -36 87.5t-88 35.5t-87.5 -35.5t-35.5 -87.5t35.5 -88t87.5 -36t88 35.5t36 88.5z" />
    <glyph glyph-name="plusminus" unicode="&#xb1;" horiz-adv-x="506" 
d="M501 740l-124 -740h-20l123 740h21zM-13 -179l92 560h-74l4 20h74l44 265q13 74 82 74h21l-3 -21h-22q-25 0 -39 -13t-20 -51l-42 -254h154l44 265q13 74 82 74h21l-3 -21h-22q-25 0 -39 -13t-20 -51l-42 -254h68l-5 -20h-67l-92 -560h-21l92 560h-154l-92 -560h-21z" />
    <glyph glyph-name="twosuperior" unicode="&#xb2;" horiz-adv-x="385" 
d="M275 526l-165 -146h190l-4 -21h-241l210 184q60 54 60 105q0 30 -20 51t-57 21q-74 0 -104 -74h-23q37 94 128 94q45 0 71 -26.5t26 -65.5q0 -31 -15 -58.5t-56 -63.5z" />
    <glyph glyph-name="threesuperior" unicode="&#xb3;" horiz-adv-x="412" 
d="M187 549l3 20q42 0 47 1q45 5 69.5 28t24.5 55q0 33 -24 49.5t-57 16.5q-48 0 -86 -30l-14 17q44 34 100 34q42 0 72 -22.5t30 -64.5q0 -32 -18.5 -57t-53.5 -37q56 -26 56 -90q0 -52 -33.5 -84.5t-88.5 -32.5q-44 0 -80 21t-54 61l20 10q14 -35 45 -53t69 -18
q45 0 73 27t28 69t-28 61t-56 19h-44z" />
    <glyph glyph-name="acute" unicode="&#xb4;" 
d="M308 614l-96 -130h-22l91 130h27z" />
    <glyph glyph-name="mu" unicode="&#xb5;" horiz-adv-x="730" 
d="M387 710h-44v20h44v-20zM730 343h-22v44h22v-44zM387 343h-44v44h44v-44zM22 343h-22v44h22v-44zM387 0h-44v20h44v-20z" />
    <glyph glyph-name="mu" unicode="&#x3bc;" horiz-adv-x="730" 
d="M387 710h-44v20h44v-20zM730 343h-22v44h22v-44zM387 343h-44v44h44v-44zM22 343h-22v44h22v-44zM387 0h-44v20h44v-20z" />
    <glyph glyph-name="paragraph" unicode="&#xb6;" horiz-adv-x="591" 
d="M582 730l-162 -909h-22l156 889h-87l-157 -889h-22l73 408h-19q-138 0 -216.5 59.5t-78.5 165.5q0 118 86.5 197t216.5 79h232zM444 710h-94q-121 0 -201 -73.5t-80 -176.5q0 -100 70.5 -155.5t205.5 -55.5h19z" />
    <glyph glyph-name="periodcentered" unicode="&#xb7;" horiz-adv-x="154" 
d="M93 393l-13 -71h-22l13 71h22z" />
    <glyph glyph-name="periodcentered" unicode="&#x2219;" horiz-adv-x="154" 
d="M93 393l-13 -71h-22l13 71h22z" />
    <glyph glyph-name="cedilla" unicode="&#xb8;" 
d="M286 -99q0 -38 -27.5 -59t-71.5 -21q-53 0 -87 33l14 14q27 -27 77 -27q31 0 52.5 14.5t21.5 42.5q0 33 -57 33q-19 0 -49 -5l-4 9l57 65h23l-49 -54q24 3 32 3q27 0 47.5 -11.5t20.5 -36.5z" />
    <glyph glyph-name="onesuperior" unicode="&#xb9;" horiz-adv-x="313" 
d="M174 355h-21l58 328q-29 -27 -70 -34l4 22q21 1 44 19.5t31 39.5h21z" />
    <glyph glyph-name="ordmasculine" unicode="&#xba;" horiz-adv-x="452" 
d="M438 587q0 -82 -59.5 -140t-142.5 -58q-77 0 -119.5 45.5t-42.5 110.5q0 82 58 140.5t144 58.5q76 0 119 -47t43 -110zM385 336l-4 -20h-318l4 20h318zM416 587q0 55 -37 96t-103 41q-77 0 -128.5 -53t-51.5 -126q0 -55 37.5 -95.5t102.5 -40.5q74 0 127 52.5t53 125.5z
" />
    <glyph glyph-name="guillemotright" unicode="&#xbb;" horiz-adv-x="291" 
d="M254 218l-4 -22l-164 -115l6 23l136 106l-96 98l2 24zM142 218l-4 -22l-164 -115l6 23l136 106l-96 98l2 24z" />
    <glyph glyph-name="onequarter" unicode="&#xbc;" horiz-adv-x="754" 
d="M174 355h-21l58 328q-29 -27 -70 -34l4 22q21 1 44 19.5t31 39.5h21zM712 730l-665 -730h-26l665 730h26zM624 101h-61l-18 -101h-21l18 101h-170l3 14l227 260h10l-45 -254h60zM405 121h141l36 203z" />
    <glyph glyph-name="onehalf" unicode="&#xbd;" horiz-adv-x="784" 
d="M174 355h-21l58 328q-29 -27 -70 -34l4 22q21 1 44 19.5t31 39.5h21zM712 730l-665 -730h-26l665 730h26zM618 167l-165 -146h190l-4 -21h-241l210 184q60 54 60 105q0 30 -20 51t-57 21q-74 0 -104 -74h-23q37 94 128 94q45 0 71 -26.5t26 -65.5q0 -31 -15 -58.5
t-56 -63.5z" />
    <glyph glyph-name="threequarters" unicode="&#xbe;" horiz-adv-x="825" 
d="M695 101h-61l-18 -101h-21l18 101h-170l3 14l227 260h10l-45 -254h60zM783 730l-665 -730h-26l665 730h26zM187 549l3 20q52 0 57 1q39 5 61.5 28t22.5 55q0 33 -24 49.5t-57 16.5q-50 0 -86 -29l-14 16q42 34 100 34q42 0 72 -22.5t30 -64.5q0 -31 -18.5 -56t-53.5 -38
q56 -26 56 -90q0 -52 -33.5 -84.5t-88.5 -32.5q-44 0 -80 21t-54 61l20 10q14 -35 45 -53t69 -18q45 0 73 27t28 69t-26 61t-48 19h-54zM476 121h141l36 203z" />
    <glyph glyph-name="questiondown" unicode="&#xbf;" horiz-adv-x="435" 
d="M282 670l13 72h22l-13 -72h-22zM13 151q0 46 29 93.5t95 117.5q61 63 90 107.5t38 96.5l10 58h22l-10 -58q-9 -54 -37 -98t-99 -121q-70 -74 -93 -114.5t-23 -86.5q0 -53 41.5 -89.5t102.5 -36.5q97 0 148 84l17 -11q-55 -93 -165 -93q-74 0 -120 44.5t-46 106.5z" />
    <glyph glyph-name="Agrave" unicode="&#xc0;" horiz-adv-x="583" 
d="M-33 0l387 748h14l131 -748h-22l-51 290h-285l-150 -290h-24zM151 310h271l-68 393zM371 790h-22l-96 130h27z" />
    <glyph glyph-name="Aacute" unicode="&#xc1;" horiz-adv-x="583" 
d="M-33 0l387 748h14l131 -748h-22l-51 290h-285l-150 -290h-24zM151 310h271l-68 393zM472 920l-96 -130h-22l91 130h27z" />
    <glyph glyph-name="Acircumflex" unicode="&#xc2;" horiz-adv-x="583" 
d="M-33 0l387 748h14l131 -748h-22l-51 290h-285l-150 -290h-24zM151 310h271l-68 393zM475 790h-22l-70 104l-108 -104h-23l124 124h17z" />
    <glyph glyph-name="Atilde" unicode="&#xc3;" horiz-adv-x="583" 
d="M-33 0l387 748h14l131 -748h-22l-51 290h-285l-150 -290h-24zM151 310h271l-68 393zM506 879q-17 -94 -75 -94q-13 0 -27.5 8.5t-19.5 14l-21 23.5q-31 31 -56 31q-19 0 -32 -20.5t-19 -51.5h-21q8 41 28 66.5t47 25.5q30 0 68 -36q1 -1 6 -6.5t6.5 -7l6 -6t6.5 -6t6 -5
t6.5 -4.5t6 -3t6.5 -2.5t6 -0.5q37 0 51 74h21z" />
    <glyph glyph-name="Adieresis" unicode="&#xc4;" horiz-adv-x="583" 
d="M529 730l-15 -84h-22l15 84h22zM199 730l-15 -84h-22l15 84h22zM-33 0l387 748h14l131 -748h-22l-51 290h-285l-150 -290h-24zM151 310h271l-68 393z" />
    <glyph glyph-name="Aring" unicode="&#xc5;" horiz-adv-x="583" 
d="M338 717q-27 6 -44 28t-17 52q0 40 29.5 69.5t69.5 29.5q34 0 58.5 -24t24.5 -59q0 -37 -24.5 -64.5t-60.5 -33.5l125 -715h-22l-51 290h-285l-150 -290h-24zM439 812q0 27 -18 46t-45 19q-31 0 -55 -22.5t-24 -55.5q0 -27 18 -46.5t42 -19.5q37 0 59.5 24t22.5 55z
M151 310h271l-68 393z" />
    <glyph glyph-name="AE" unicode="&#xc6;" horiz-adv-x="854" 
d="M848 730l-3 -20h-327l-53 -315h282l-3 -18h-283l-61 -357h345l-3 -20h-364l41 241h-253l-175 -241h-24l529 730h352zM497 701l-317 -441h242z" />
    <glyph glyph-name="Ccedilla" unicode="&#xc7;" horiz-adv-x="697" 
d="M307 -9q-109 15 -185.5 103t-76.5 223q0 76 26.5 150.5t74.5 136.5t123 100t163 38q86 0 149.5 -35t96.5 -93l-18 -11q-34 57 -93 88t-135 31q-83 0 -154 -36.5t-116 -95.5t-70.5 -130t-25.5 -143q0 -137 84.5 -223t197.5 -86q138 0 242 98l14 -16q-108 -102 -258 -102
q-12 0 -18 1l-39 -43q24 3 32 3q27 0 47.5 -11.5t20.5 -36.5q0 -38 -27.5 -59t-71.5 -21q-52 0 -87 33l14 14q27 -27 77 -27q31 0 52.5 14.5t21.5 42.5q0 33 -57 33q-19 0 -49 -5l-4 9z" />
    <glyph glyph-name="Egrave" unicode="&#xc8;" horiz-adv-x="497" 
d="M491 730l-3 -20h-326l-53 -315h281l-3 -20h-281l-60 -355h342l-3 -20h-364l124 730h346zM353 790h-22l-96 130h27z" />
    <glyph glyph-name="Eacute" unicode="&#xc9;" horiz-adv-x="497" 
d="M491 730l-3 -20h-326l-53 -315h281l-3 -20h-281l-60 -355h342l-3 -20h-364l124 730h346zM421 920l-96 -130h-22l91 130h27z" />
    <glyph glyph-name="Ecircumflex" unicode="&#xca;" horiz-adv-x="497" 
d="M491 730l-3 -20h-326l-53 -315h281l-3 -20h-281l-60 -355h342l-3 -20h-364l124 730h346zM437 790h-22l-70 104l-108 -104h-23l124 124h17z" />
    <glyph glyph-name="Edieresis" unicode="&#xcb;" horiz-adv-x="497" 
d="M491 730l-3 -20h-326l-53 -315h281l-3 -20h-281l-60 -355h342l-3 -20h-364l124 730h346zM436 874l-15 -84h-22l15 84h22zM266 874l-15 -84h-22l15 84h22z" />
    <glyph glyph-name="Igrave" unicode="&#xcc;" horiz-adv-x="188" 
d="M166 730l-124 -730h-21l124 730h21zM174 790h-22l-96 130h27z" />
    <glyph glyph-name="Iacute" unicode="&#xcd;" horiz-adv-x="188" 
d="M166 730l-124 -730h-21l124 730h21zM262 920l-96 -130h-22l91 130h27z" />
    <glyph glyph-name="Icircumflex" unicode="&#xce;" horiz-adv-x="188" 
d="M166 730l-124 -730h-21l124 730h21zM273 790h-22l-70 104l-108 -104h-23l124 124h17z" />
    <glyph glyph-name="Idieresis" unicode="&#xcf;" horiz-adv-x="188" 
d="M166 730l-124 -730h-21l124 730h21zM275 874l-15 -84h-22l15 84h22zM105 874l-15 -84h-22l15 84h22z" />
    <glyph glyph-name="Eth" unicode="&#xd0;" horiz-adv-x="623" 
d="M85 372h-57l3 20h57l58 338h111q149 0 240 -85.5t91 -223.5q0 -100 -37 -181.5t-99.5 -133t-142.5 -79t-169 -27.5h-119zM109 392h181l-3 -20h-181l-60 -352h94q116 0 211 44.5t155.5 137.5t60.5 219q0 129 -85.5 209t-225.5 80h-93z" />
    <glyph glyph-name="Ntilde" unicode="&#xd1;" horiz-adv-x="718" 
d="M695 730l-122 -730h-17l-399 692l-116 -692h-21l122 730h17l400 -693l115 693h21zM574 879q-17 -94 -75 -94q-13 0 -27.5 8.5t-19.5 14l-21 23.5q-31 31 -56 31q-19 0 -32 -20.5t-19 -51.5h-21q8 41 28 66.5t47 25.5q30 0 68 -36q1 -1 6 -6.5t6.5 -7l6 -6t6.5 -6t6 -5
t6.5 -4.5t6 -3t6.5 -2.5t6 -0.5q37 0 51 74h21z" />
    <glyph glyph-name="Ograve" unicode="&#xd2;" horiz-adv-x="780" 
d="M45 307q0 114 48 213t136 160.5t197 61.5q131 0 220 -93t89 -226q0 -176 -108.5 -305.5t-272.5 -129.5q-134 0 -221.5 92.5t-87.5 226.5zM354 8q155 0 257.5 124t102.5 291q0 125 -83 212t-205 87q-103 0 -186.5 -59.5t-128.5 -154t-45 -201.5q0 -124 81.5 -211.5
t206.5 -87.5zM480 790h-22l-96 130h27z" />
    <glyph glyph-name="Oacute" unicode="&#xd3;" horiz-adv-x="780" 
d="M45 307q0 114 48 213t136 160.5t197 61.5q131 0 220 -93t89 -226q0 -176 -108.5 -305.5t-272.5 -129.5q-134 0 -221.5 92.5t-87.5 226.5zM354 8q155 0 257.5 124t102.5 291q0 125 -83 212t-205 87q-103 0 -186.5 -59.5t-128.5 -154t-45 -201.5q0 -124 81.5 -211.5
t206.5 -87.5zM523 920l-96 -130h-22l91 130h27z" />
    <glyph glyph-name="Ocircumflex" unicode="&#xd4;" horiz-adv-x="780" 
d="M45 307q0 114 48 213t136 160.5t197 61.5q131 0 220 -93t89 -226q0 -176 -108.5 -305.5t-272.5 -129.5q-134 0 -221.5 92.5t-87.5 226.5zM354 8q155 0 257.5 124t102.5 291q0 125 -83 212t-205 87q-103 0 -186.5 -59.5t-128.5 -154t-45 -201.5q0 -124 81.5 -211.5
t206.5 -87.5zM562 790h-22l-70 104l-108 -104h-23l124 124h17z" />
    <glyph glyph-name="Otilde" unicode="&#xd5;" horiz-adv-x="780" 
d="M45 307q0 114 48 213t136 160.5t197 61.5q131 0 220 -93t89 -226q0 -176 -108.5 -305.5t-272.5 -129.5q-134 0 -221.5 92.5t-87.5 226.5zM354 8q155 0 257.5 124t102.5 291q0 125 -83 212t-205 87q-103 0 -186.5 -59.5t-128.5 -154t-45 -201.5q0 -124 81.5 -211.5
t206.5 -87.5zM605 879q-17 -94 -75 -94q-13 0 -27.5 8.5t-19.5 14l-21 23.5q-31 31 -56 31q-19 0 -32 -20.5t-19 -51.5h-21q8 41 28 66.5t47 25.5q30 0 68 -36q1 -1 6 -6.5t6.5 -7l6 -6t6.5 -6t6 -5t6.5 -4.5t6 -3t6.5 -2.5t6 -0.5q37 0 51 74h21z" />
    <glyph glyph-name="Odieresis" unicode="&#xd6;" horiz-adv-x="780" 
d="M757 730l-15 -84h-22l15 84h22zM137 730l-15 -84h-22l15 84h22zM45 307q0 114 48 213t136 160.5t197 61.5q131 0 220 -93t89 -226q0 -176 -108.5 -305.5t-272.5 -129.5q-134 0 -221.5 92.5t-87.5 226.5zM354 8q155 0 257.5 124t102.5 291q0 125 -83 212t-205 87
q-103 0 -186.5 -59.5t-128.5 -154t-45 -201.5q0 -124 81.5 -211.5t206.5 -87.5z" />
    <glyph glyph-name="multiply" unicode="&#xd7;" horiz-adv-x="483" 
d="M237 315l-160 -136l-11 14l159 136l-116 141l15 13l116 -142l166 142l12 -14l-167 -141l113 -137l-14 -12z" />
    <glyph glyph-name="Oslash" unicode="&#xd8;" horiz-adv-x="780" 
d="M669 622q66 -86 66 -199q0 -176 -108.5 -305.5t-272.5 -129.5q-139 0 -228 99l-104 -102l-13 16l104 102q-68 89 -68 204q0 114 48 213t136 160.5t197 61.5q141 0 230 -104l106 104l13 -16zM128 118l513 505q-83 99 -215 99q-103 0 -186.5 -59.5t-128.5 -154t-45 -201.5
q0 -106 62 -189zM654 607l-513 -505q83 -94 213 -94q155 0 257.5 124t102.5 291q0 103 -60 184z" />
    <glyph glyph-name="Ugrave" unicode="&#xd9;" horiz-adv-x="640" 
d="M627 730l-81 -477q-21 -124 -98.5 -194.5t-174.5 -70.5q-104 0 -169 75t-42 209l77 458h22l-77 -461q-10 -63 1 -113.5t39 -82t66 -48t83 -16.5q91 0 161.5 65.5t90.5 182.5l80 473h22zM420 790h-22l-96 130h27z" />
    <glyph glyph-name="Uacute" unicode="&#xda;" horiz-adv-x="640" 
d="M627 730l-81 -477q-21 -124 -98.5 -194.5t-174.5 -70.5q-104 0 -169 75t-42 209l77 458h22l-77 -461q-10 -63 1 -113.5t39 -82t66 -48t83 -16.5q91 0 161.5 65.5t90.5 182.5l80 473h22zM473 920l-96 -130h-22l91 130h27z" />
    <glyph glyph-name="Ucircumflex" unicode="&#xdb;" horiz-adv-x="640" 
d="M627 730l-81 -477q-21 -124 -98.5 -194.5t-174.5 -70.5q-104 0 -169 75t-42 209l77 458h22l-77 -461q-10 -63 1 -113.5t39 -82t66 -48t83 -16.5q91 0 161.5 65.5t90.5 182.5l80 473h22zM499 790h-22l-70 104l-108 -104h-23l124 124h17z" />
    <glyph glyph-name="Udieresis" unicode="&#xdc;" horiz-adv-x="640" 
d="M627 730l-81 -477q-21 -124 -98.5 -194.5t-174.5 -70.5q-104 0 -169 75t-42 209l77 458h22l-77 -461q-10 -63 1 -113.5t39 -82t66 -48t83 -16.5q91 0 161.5 65.5t90.5 182.5l80 473h22zM479 730l-15 -84h-22l15 84h22zM309 730l-15 -84h-22l15 84h22z" />
    <glyph glyph-name="Yacute" unicode="&#xdd;" horiz-adv-x="599" 
d="M624 730l-319 -371l-58 -359h-21l60 360l-192 370h22l183 -351l301 351h24zM442 920l-96 -130h-22l91 130h27z" />
    <glyph glyph-name="Thorn" unicode="&#xde;" horiz-adv-x="498" 
d="M211 181h-138l-32 -181h-21l124 730h21l-24 -148h99q227 0 227 -176q0 -97 -67 -161t-189 -64zM233 562h-96l-61 -361h132q117 0 177.5 59t60.5 148q0 154 -213 154z" />
    <glyph glyph-name="germandbls" unicode="&#xdf;" horiz-adv-x="441" 
d="M394 624q0 -82 -50 -139t-108 -61q51 -8 90.5 -55.5t40.5 -133.5q1 -61 -15.5 -114.5t-58.5 -93t-104 -39.5q-41 0 -78 22l11 19q34 -21 70 -21q72 0 113 65t41 151q0 85 -41.5 137t-115.5 52h-9l3 20h15q68 0 121 54t53 130q0 49 -27.5 77t-75.5 28q-55 0 -92.5 -41
t-48.5 -104l-129 -756h-21l129 756q13 74 56 119.5t110 45.5q55 0 88 -33.5t33 -84.5z" />
    <glyph glyph-name="agrave" unicode="&#xe0;" horiz-adv-x="394" 
d="M324 280l-43 -280h-21l8 46q-79 -58 -159 -58q-49 0 -82 29.5t-33 80.5q0 67 56 109t171 42h79l5 31q9 57 -18 85t-85 28q-59 0 -115 -35l-7 18q63 37 127 37q68 0 97 -35.5t20 -97.5zM297 229h-76q-100 0 -153 -34t-53 -97q0 -38 24 -64t70 -26q72 0 163 61zM237 484
h-22l-96 130h27z" />
    <glyph glyph-name="aacute" unicode="&#xe1;" horiz-adv-x="394" 
d="M324 280l-43 -280h-21l8 46q-79 -58 -159 -58q-49 0 -82 29.5t-33 80.5q0 67 56 109t171 42h79l5 31q9 57 -18 85t-85 28q-59 0 -115 -35l-7 18q63 37 127 37q68 0 97 -35.5t20 -97.5zM297 229h-76q-100 0 -153 -34t-53 -97q0 -38 24 -64t70 -26q72 0 163 61zM300 614
l-96 -130h-22l91 130h27z" />
    <glyph glyph-name="acircumflex" unicode="&#xe2;" horiz-adv-x="394" 
d="M324 280l-43 -280h-21l8 46q-79 -58 -159 -58q-49 0 -82 29.5t-33 80.5q0 67 56 109t171 42h79l5 31q9 57 -18 85t-85 28q-59 0 -115 -35l-7 18q63 37 127 37q68 0 97 -35.5t20 -97.5zM297 229h-76q-100 0 -153 -34t-53 -97q0 -38 24 -64t70 -26q72 0 163 61zM326 484
h-22l-70 104l-108 -104h-23l124 124h17z" />
    <glyph glyph-name="atilde" unicode="&#xe3;" horiz-adv-x="394" 
d="M324 280l-43 -280h-21l8 46q-79 -58 -159 -58q-49 0 -82 29.5t-33 80.5q0 67 56 109t171 42h79l5 31q9 57 -18 85t-85 28q-59 0 -115 -35l-7 18q63 37 127 37q68 0 97 -35.5t20 -97.5zM297 229h-76q-100 0 -153 -34t-53 -97q0 -38 24 -64t70 -26q72 0 163 61zM352 573
q-17 -94 -75 -94q-13 0 -27.5 8.5t-19.5 14l-21 23.5q-31 31 -56 31q-19 0 -32 -20.5t-19 -51.5h-21q8 41 28 66.5t47 25.5q30 0 68 -36q1 -1 6 -6.5t6.5 -7l6 -6t6.5 -6t6 -5t6.5 -4.5t6 -3t6.5 -2.5t6 -0.5q37 0 51 74h21z" />
    <glyph glyph-name="adieresis" unicode="&#xe4;" horiz-adv-x="394" 
d="M324 280l-43 -280h-21l8 46q-79 -58 -159 -58q-49 0 -82 29.5t-33 80.5q0 67 56 109t171 42h79l5 31q9 57 -18 85t-85 28q-59 0 -115 -35l-7 18q63 37 127 37q68 0 97 -35.5t20 -97.5zM297 229h-76q-100 0 -153 -34t-53 -97q0 -38 24 -64t70 -26q72 0 163 61zM325 568
l-15 -84h-22l15 84h22zM155 568l-15 -84h-22l15 84h22z" />
    <glyph glyph-name="aring" unicode="&#xe5;" horiz-adv-x="394" 
d="M324 280l-43 -280h-21l8 46q-79 -58 -159 -58q-49 0 -82 29.5t-33 80.5q0 67 56 109t171 42h79l5 31q9 57 -18 85t-85 28q-59 0 -115 -35l-7 18q63 37 127 37q68 0 97 -35.5t20 -97.5zM297 229h-76q-100 0 -153 -34t-53 -97q0 -38 24 -64t70 -26q72 0 163 61zM319 577
q0 -41 -30 -70t-71 -29q-34 0 -57.5 24t-23.5 59q0 40 29.5 69.5t69.5 29.5q34 0 58.5 -24t24.5 -59zM299 576q0 27 -18 46t-45 19q-31 0 -55 -22.5t-24 -55.5q0 -27 18 -46.5t42 -19.5q37 0 59.5 24t22.5 55z" />
    <glyph glyph-name="ae" unicode="&#xe6;" horiz-adv-x="756" 
d="M682 229v-17h-367q-4 -26 -4 -50q0 -68 39.5 -111t116.5 -43q75 0 137 50l15 -14q-60 -56 -152 -56q-117 0 -160 91q-48 -43 -94 -67t-104 -24q-49 0 -82 29.5t-33 80.5q0 66 55 105t171 39h81q0 1 3 16l2 15q10 58 -18 89t-85 31q-61 0 -116 -31l-7 18q63 33 131 33
q59 0 89.5 -34t27.5 -77q31 49 80 80t106 31q82 0 125 -55.5t43 -128.5zM660 233q-2 72 -41 116t-107 44q-66 0 -119.5 -45.5t-72.5 -114.5h340zM296 222h-76q-205 0 -205 -124q0 -38 24 -64t70 -26q91 0 191 89q-18 53 -4 125z" />
    <glyph glyph-name="ccedilla" unicode="&#xe7;" horiz-adv-x="453" 
d="M154 -10q-69 11 -107.5 62.5t-38.5 118.5q0 97 65 169.5t160 72.5q113 0 157 -91l-18 -10q-38 81 -139 81q-86 0 -145 -67t-59 -155q0 -67 42.5 -115t116.5 -48q90 0 149 69l16 -14q-68 -75 -165 -75h-13l-38 -42q24 3 32 3q27 0 47.5 -11.5t20.5 -36.5q0 -38 -27.5 -59
t-71.5 -21q-52 0 -87 33l14 14q27 -27 77 -27q31 0 52.5 14.5t21.5 42.5q0 33 -57 33q-19 0 -49 -5l-4 9q3 3 8 9t16 18l18 20z" />
    <glyph glyph-name="egrave" unicode="&#xe8;" horiz-adv-x="469" 
d="M395 231v-17h-361q-4 -26 -4 -41q0 -66 42 -115.5t116 -49.5q89 0 150 52l14 -15q-65 -58 -164 -58q-84 0 -131.5 55t-47.5 131q0 97 63.5 168.5t157.5 71.5q82 0 123.5 -54.5t41.5 -127.5zM373 235q-2 72 -39.5 115t-104.5 43q-66 0 -118.5 -44.5t-71.5 -113.5h334z
M274 484h-22l-96 130h27z" />
    <glyph glyph-name="eacute" unicode="&#xe9;" horiz-adv-x="469" 
d="M395 231v-17h-361q-4 -26 -4 -41q0 -66 42 -115.5t116 -49.5q89 0 150 52l14 -15q-65 -58 -164 -58q-84 0 -131.5 55t-47.5 131q0 97 63.5 168.5t157.5 71.5q82 0 123.5 -54.5t41.5 -127.5zM373 235q-2 72 -39.5 115t-104.5 43q-66 0 -118.5 -44.5t-71.5 -113.5h334z
M337 614l-96 -130h-22l91 130h27z" />
    <glyph glyph-name="ecircumflex" unicode="&#xea;" horiz-adv-x="469" 
d="M395 231v-17h-361q-4 -26 -4 -41q0 -66 42 -115.5t116 -49.5q89 0 150 52l14 -15q-65 -58 -164 -58q-84 0 -131.5 55t-47.5 131q0 97 63.5 168.5t157.5 71.5q82 0 123.5 -54.5t41.5 -127.5zM373 235q-2 72 -39.5 115t-104.5 43q-66 0 -118.5 -44.5t-71.5 -113.5h334z
M358 484h-22l-70 104l-108 -104h-23l124 124h17z" />
    <glyph glyph-name="edieresis" unicode="&#xeb;" horiz-adv-x="469" 
d="M395 231v-17h-361q-4 -26 -4 -41q0 -66 42 -115.5t116 -49.5q89 0 150 52l14 -15q-65 -58 -164 -58q-84 0 -131.5 55t-47.5 131q0 97 63.5 168.5t157.5 71.5q82 0 123.5 -54.5t41.5 -127.5zM373 235q-2 72 -39.5 115t-104.5 43q-66 0 -118.5 -44.5t-71.5 -113.5h334z
M358 568l-15 -84h-22l15 84h22zM188 568l-15 -84h-22l15 84h22z" />
    <glyph glyph-name="igrave" unicode="&#xec;" horiz-adv-x="156" 
d="M94 401l-67 -401h-20l66 401h21zM99 484h-22l-96 130h27z" />
    <glyph glyph-name="iacute" unicode="&#xed;" horiz-adv-x="156" 
d="M94 401l-67 -401h-20l66 401h21zM198 614l-96 -130h-22l91 130h27z" />
    <glyph glyph-name="icircumflex" unicode="&#xee;" horiz-adv-x="156" 
d="M94 401l-67 -401h-20l66 401h21zM202 484h-22l-70 104l-108 -104h-23l124 124h17z" />
    <glyph glyph-name="idieresis" unicode="&#xef;" horiz-adv-x="156" 
d="M94 401l-67 -401h-20l66 401h21zM206 568l-15 -84h-22l15 84h22zM36 568l-15 -84h-22l15 84h22z" />
    <glyph glyph-name="eth" unicode="&#xf0;" horiz-adv-x="460" 
d="M320 595l-27 -15l-55 -32l-27 -16l-9 17l107 63q-40 66 -100 119l11 17q67 -58 108 -125l96 57l9 -18l-95 -55q78 -135 78 -333q0 -135 -63.5 -210.5t-164.5 -75.5q-85 0 -132.5 53.5t-47.5 129.5q0 96 64 165t159 69q59 0 100.5 -28.5t62.5 -74.5q-4 168 -74 293z
M231 385q-86 0 -144 -63.5t-58 -150.5q0 -66 42 -114.5t117 -48.5q83 0 142.5 63t59.5 150q0 66 -42 115t-117 49z" />
    <glyph glyph-name="ntilde" unicode="&#xf1;" horiz-adv-x="427" 
d="M307 0h-20l43 255q10 62 -18.5 101t-95.5 39q-52 0 -95.5 -39.5t-50.5 -82.5l-47 -273h-21l69 401h20l-13 -69q22 41 61 61.5t80 20.5q76 0 110 -46t23 -108zM370 573q-17 -94 -75 -94q-13 0 -27.5 8.5t-19.5 14l-21 23.5q-31 31 -56 31q-19 0 -32 -20.5t-19 -51.5h-21
q8 41 28 66.5t47 25.5q30 0 68 -36q1 -1 6 -6.5t6.5 -7l6 -6t6.5 -6t6 -5t6.5 -4.5t6 -3t6.5 -2.5t6 -0.5q37 0 51 74h21z" />
    <glyph glyph-name="ograve" unicode="&#xf2;" horiz-adv-x="480" 
d="M188 -12q-84 0 -132 55.5t-48 131.5q0 96 65 167t160 71q85 0 131.5 -56.5t46.5 -131.5q0 -97 -65.5 -167t-157.5 -70zM233 393q-86 0 -145 -65.5t-59 -152.5q0 -67 42.5 -117t116.5 -50q83 0 142.5 64t59.5 153q0 67 -41 117.5t-116 50.5zM280 484h-22l-96 130h27z" />
    <glyph glyph-name="oacute" unicode="&#xf3;" horiz-adv-x="480" 
d="M188 -12q-84 0 -132 55.5t-48 131.5q0 96 65 167t160 71q85 0 131.5 -56.5t46.5 -131.5q0 -97 -65.5 -167t-157.5 -70zM233 393q-86 0 -145 -65.5t-59 -152.5q0 -67 42.5 -117t116.5 -50q83 0 142.5 64t59.5 153q0 67 -41 117.5t-116 50.5zM343 614l-96 -130h-22l91 130
h27z" />
    <glyph glyph-name="ocircumflex" unicode="&#xf4;" horiz-adv-x="480" 
d="M188 -12q-84 0 -132 55.5t-48 131.5q0 96 65 167t160 71q85 0 131.5 -56.5t46.5 -131.5q0 -97 -65.5 -167t-157.5 -70zM233 393q-86 0 -145 -65.5t-59 -152.5q0 -67 42.5 -117t116.5 -50q83 0 142.5 64t59.5 153q0 67 -41 117.5t-116 50.5zM364 484h-22l-70 104
l-108 -104h-23l124 124h17z" />
    <glyph glyph-name="otilde" unicode="&#xf5;" horiz-adv-x="480" 
d="M188 -12q-84 0 -132 55.5t-48 131.5q0 96 65 167t160 71q85 0 131.5 -56.5t46.5 -131.5q0 -97 -65.5 -167t-157.5 -70zM233 393q-86 0 -145 -65.5t-59 -152.5q0 -67 42.5 -117t116.5 -50q83 0 142.5 64t59.5 153q0 67 -41 117.5t-116 50.5zM395 573q-17 -94 -75 -94
q-13 0 -27.5 8.5t-19.5 14l-21 23.5q-31 31 -56 31q-19 0 -32 -20.5t-19 -51.5h-21q8 41 28 66.5t47 25.5q30 0 68 -36q1 -1 6 -6.5t6.5 -7l6 -6t6.5 -6t6 -5t6.5 -4.5t6 -3t6.5 -2.5t6 -0.5q37 0 51 74h21z" />
    <glyph glyph-name="odieresis" unicode="&#xf6;" horiz-adv-x="480" 
d="M188 -12q-84 0 -132 55.5t-48 131.5q0 96 65 167t160 71q85 0 131.5 -56.5t46.5 -131.5q0 -97 -65.5 -167t-157.5 -70zM233 393q-86 0 -145 -65.5t-59 -152.5q0 -67 42.5 -117t116.5 -50q83 0 142.5 64t59.5 153q0 67 -41 117.5t-116 50.5zM368 568l-15 -84h-22l15 84h22
zM198 568l-15 -84h-22l15 84h22z" />
    <glyph glyph-name="divide" unicode="&#xf7;" horiz-adv-x="483" 
d="M275 453h-22l15 84h22zM444 320h-409l4 20h409zM217 125h-22l15 84h22z" />
    <glyph glyph-name="oslash" unicode="&#xf8;" horiz-adv-x="480" 
d="M44 57q-36 51 -36 118q0 96 65 167t160 71q84 0 132 -58l63 58l12 -16l-62 -58q33 -49 33 -114q0 -97 -65.5 -167t-157.5 -70q-80 0 -131 54l-63 -58l-12 16zM60 72l290 268q-43 53 -117 53q-86 0 -145 -65.5t-59 -152.5q0 -59 31 -103zM362 324l-290 -267
q46 -49 116 -49q83 0 142.5 64t59.5 153q0 56 -28 99z" />
    <glyph glyph-name="ugrave" unicode="&#xf9;" horiz-adv-x="427" 
d="M64 401h21l-42 -254q-10 -62 18.5 -101t95.5 -39q53 0 96 38t50 81l46 275h20l-67 -401h-21l13 67q-22 -40 -60.5 -59.5t-79.5 -19.5q-76 0 -109.5 45.5t-22.5 108.5zM253 484h-22l-96 130h27z" />
    <glyph glyph-name="uacute" unicode="&#xfa;" horiz-adv-x="427" 
d="M64 401h21l-42 -254q-10 -62 18.5 -101t95.5 -39q53 0 96 38t50 81l46 275h20l-67 -401h-21l13 67q-22 -40 -60.5 -59.5t-79.5 -19.5q-76 0 -109.5 45.5t-22.5 108.5zM316 614l-96 -130h-22l91 130h27z" />
    <glyph glyph-name="ucircumflex" unicode="&#xfb;" horiz-adv-x="427" 
d="M64 401h21l-42 -254q-10 -62 18.5 -101t95.5 -39q53 0 96 38t50 81l46 275h20l-67 -401h-21l13 67q-22 -40 -60.5 -59.5t-79.5 -19.5q-76 0 -109.5 45.5t-22.5 108.5zM337 484h-22l-70 104l-108 -104h-23l124 124h17z" />
    <glyph glyph-name="udieresis" unicode="&#xfc;" horiz-adv-x="427" 
d="M64 401h21l-42 -254q-10 -62 18.5 -101t95.5 -39q53 0 96 38t50 81l46 275h20l-67 -401h-21l13 67q-22 -40 -60.5 -59.5t-79.5 -19.5q-76 0 -109.5 45.5t-22.5 108.5zM341 568l-15 -84h-22l15 84h22zM171 568l-15 -84h-22l15 84h22z" />
    <glyph glyph-name="yacute" unicode="&#xfd;" horiz-adv-x="373" 
d="M356 401l-287 -522q-38 -68 -92 -68q-27 0 -47 13l5 22q18 -15 49 -15q37 0 74 68l60 110l-95 392h23l86 -369l202 369h22zM289 614l-96 -130h-22l91 130h27z" />
    <glyph glyph-name="thorn" unicode="&#xfe;" horiz-adv-x="462" 
d="M188 -12q-98 0 -152 85l-44 -252h-20l155 919h20l-73 -441q21 48 69.5 81t99.5 33q73 0 117 -52.5t44 -121.5q0 -119 -63.5 -185t-152.5 -66zM242 392q-66 0 -119.5 -52.5t-67.5 -142.5l-15 -93q44 -95 155 -95q82 0 135.5 64.5t53.5 156.5q0 74 -40 118t-102 44z" />
    <glyph glyph-name="ydieresis" unicode="&#xff;" horiz-adv-x="373" 
d="M356 401l-287 -522q-38 -68 -92 -68q-27 0 -47 13l5 22q18 -15 49 -15q37 0 74 68l60 110l-95 392h23l86 -369l202 369h22zM314 568l-15 -84h-22l15 84h22zM144 568l-15 -84h-22l15 84h22z" />
    <glyph glyph-name="dotlessi" unicode="&#x131;" horiz-adv-x="156" 
d="M94 401l-67 -401h-20l66 401h21z" />
    <glyph glyph-name="Lslash" unicode="&#x141;" horiz-adv-x="483" 
d="M94 308l-48 -288h350l-2 -20h-373l51 299l-71 -28l-5 18l79 31l70 410h21l-68 -401l167 66l5 -18z" />
    <glyph glyph-name="lslash" unicode="&#x142;" horiz-adv-x="186" 
d="M95 318l-53 -318h-20l51 310l-63 -24l-4 18l71 27l68 409h21l-67 -401l80 31l4 -18z" />
    <glyph glyph-name="OE" unicode="&#x152;" horiz-adv-x="1128" 
d="M1122 730l-3 -20h-326l-54 -317h282l-3 -18h-283l-60 -355h345l-3 -20h-364l36 215q-48 -103 -136 -165t-199 -62q-134 0 -221.5 92.5t-87.5 226.5q0 114 48 213t136 160.5t197 61.5q120 0 205 -78t101 -196l45 262h345zM714 423q0 124 -83 211.5t-205 87.5
q-155 0 -257.5 -124t-102.5 -291q0 -124 81.5 -211.5t206.5 -87.5q155 0 257.5 124t102.5 291z" />
    <glyph glyph-name="oe" unicode="&#x153;" horiz-adv-x="846" 
d="M392 133q-26 -65 -81.5 -105t-122.5 -40q-84 0 -132 55.5t-48 131.5q0 96 65 167t160 71q73 0 117 -42t55 -105q25 65 79 106t123 41q82 0 123.5 -54.5t41.5 -127.5v-17h-361q-4 -26 -4 -41q0 -66 42 -115.5t116 -49.5q89 0 150 52l14 -15q-65 -58 -164 -58
q-73 0 -117.5 41t-55.5 105zM233 393q-86 0 -145 -65.5t-59 -152.5q0 -67 42.5 -117t116.5 -50q83 0 142.5 64t59.5 153q0 67 -41 117.5t-116 50.5zM750 235q-2 72 -39.5 115t-104.5 43q-66 0 -118.5 -44.5t-71.5 -113.5h334z" />
    <glyph glyph-name="Scaron" unicode="&#x160;" horiz-adv-x="457" 
d="M419 646q-48 80 -149 80q-66 0 -114.5 -43.5t-48.5 -114.5q0 -51 28.5 -91t110.5 -93q80 -52 111.5 -98t31.5 -106q0 -42 -13.5 -76t-34.5 -55.5t-49 -35.5t-56 -20t-56 -6q-57 0 -103.5 22.5t-75.5 59.5l14 15q27 -34 70.5 -55.5t94.5 -21.5q74 0 131 43.5t57 129.5
q0 54 -30 96t-104 90q-88 57 -118.5 101.5t-30.5 100.5q0 81 55 129.5t130 48.5q112 0 166 -88zM416 914l-125 -124h-17l-81 124h20l73 -97l110 97h20z" />
    <glyph glyph-name="scaron" unicode="&#x161;" horiz-adv-x="345" 
d="M-1 54q58 -46 132 -46q47 0 77.5 22t30.5 65q0 10 -1.5 18.5t-6 16l-8 13t-12 11.5t-13 9.5t-15.5 9t-15.5 8t-17 8t-16.5 7.5q-49 23 -75 47.5t-26 66.5q0 51 38 78t93 27q81 0 120 -53l-16 -12q-31 45 -104 45q-46 0 -78 -21.5t-32 -63.5q0 -19 6.5 -34t21.5 -27
t26.5 -18.5t33.5 -16.5q32 -15 44.5 -21.5t34.5 -22t30.5 -33.5t8.5 -42q0 -52 -36.5 -79.5t-92.5 -27.5q-78 0 -144 50zM305 608l-125 -124h-17l-81 124h20l73 -97l110 97h20z" />
    <glyph glyph-name="Ydieresis" unicode="&#x178;" horiz-adv-x="599" 
d="M624 730l-319 -371l-58 -359h-21l60 360l-192 370h22l183 -351l301 351h24zM484 874l-15 -84h-22l15 84h22zM314 874l-15 -84h-22l15 84h22z" />
    <glyph glyph-name="Zcaron" unicode="&#x17d;" horiz-adv-x="607" 
d="M615 730l-585 -710h467l-3 -20h-507l587 710h-418l2 20h457zM506 914l-125 -124h-17l-81 124h20l73 -97l110 97h20z" />
    <glyph glyph-name="zcaron" unicode="&#x17e;" horiz-adv-x="397" 
d="M369 401l-357 -381h278l-3 -20h-322l359 381h-262l4 20h303zM351 608l-125 -124h-17l-81 124h20l73 -97l110 97h20z" />
    <glyph glyph-name="florin" unicode="&#x192;" horiz-adv-x="241" 
d="M273 730l-3 -20h-25q-42 0 -58.5 -19t-22.5 -52l-41 -238h81l-3 -20h-82l-20 -117l-41 -236l-20 -118q-9 -52 -32.5 -70.5t-69.5 -18.5h-10l3 20h6q43 0 58.5 16t22.5 55l81 469h-61l3 20h61l42 239q16 90 100 90h31z" />
    <glyph glyph-name="circumflex" unicode="&#x2c6;" 
d="M329 484h-22l-70 104l-108 -104h-23l124 124h17z" />
    <glyph glyph-name="caron" unicode="&#x2c7;" 
d="M338 608l-125 -124h-17l-81 124h20l73 -97l110 97h20z" />
    <glyph glyph-name="breve" unicode="&#x2d8;" 
d="M351 607q-10 -57 -53 -92t-95 -35t-82 35t-20 92h22q-9 -47 15.5 -77t66.5 -30q43 0 79 30t45 77h22z" />
    <glyph glyph-name="dotaccent" unicode="&#x2d9;" 
d="M131 576l-12 -62h-22l12 62h22z" />
    <glyph glyph-name="ring" unicode="&#x2da;" 
d="M306 577q0 -41 -30 -70t-71 -29q-33 0 -57 24t-24 59q0 40 29.5 69.5t69.5 29.5q34 0 58.5 -24t24.5 -59zM286 576q0 27 -18 46t-45 19q-31 0 -55 -22.5t-24 -55.5q0 -27 18 -46.5t42 -19.5q37 0 59.5 24t22.5 55z" />
    <glyph glyph-name="ogonek" unicode="&#x2db;" 
d="M301 -151q-45 -28 -91 -28q-41 0 -69 19t-28 54q0 30 27.5 61.5t80.5 53.5h35q-57 -24 -89.5 -53.5t-32.5 -61.5q0 -25 21 -39t56 -14q40 0 81 24z" />
    <glyph glyph-name="tilde" unicode="&#x2dc;" 
d="M360 573q-17 -94 -75 -94q-13 0 -27.5 8.5t-19.5 14l-21 23.5q-31 31 -56 31q-19 0 -32 -20.5t-19 -51.5h-21q8 41 28 66.5t47 25.5q30 0 68 -36q1 -1 6 -6.5t6.5 -7l6 -6t6.5 -6t6 -5t6.5 -4.5t6 -3t6.5 -2.5t6 -0.5q37 0 51 74h21z" />
    <glyph glyph-name="hungarumlaut" unicode="&#x2dd;" 
d="M331 614l-87 -130h-18l77 130h28zM198 614l-87 -130h-18l77 130h28z" />
    <glyph glyph-name="Delta" unicode="&#x394;" horiz-adv-x="730" 
d="M387 710h-44v20h44v-20zM730 343h-22v44h22v-44zM387 343h-44v44h44v-44zM22 343h-22v44h22v-44zM387 0h-44v20h44v-20z" />
    <glyph glyph-name="Delta" unicode="&#x2206;" horiz-adv-x="730" 
d="M387 710h-44v20h44v-20zM730 343h-22v44h22v-44zM387 343h-44v44h44v-44zM22 343h-22v44h22v-44zM387 0h-44v20h44v-20z" />
    <glyph glyph-name="Omega" unicode="&#x3a9;" horiz-adv-x="462" 
d="M400 401l-67 -401h-21l17 94q-20 -47 -68.5 -76.5t-98.5 -29.5q-75 0 -119 49t-44 117q0 120 64 189.5t152 69.5q98 0 153 -93l13 81h19zM363 289q-46 103 -154 103q-82 0 -135.5 -68.5t-53.5 -160.5q0 -74 39.5 -114t103.5 -40q66 0 118.5 48.5t66.5 138.5z" />
    <glyph glyph-name="Omega" unicode="&#x2126;" horiz-adv-x="462" 
d="M400 401l-67 -401h-21l17 94q-20 -47 -68.5 -76.5t-98.5 -29.5q-75 0 -119 49t-44 117q0 120 64 189.5t152 69.5q98 0 153 -93l13 81h19zM363 289q-46 103 -154 103q-82 0 -135.5 -68.5t-53.5 -160.5q0 -74 39.5 -114t103.5 -40q66 0 118.5 48.5t66.5 138.5z" />
    <glyph glyph-name="pi" unicode="&#x3c0;" horiz-adv-x="844" 
d="M45 365q0 156 110.5 266.5t266.5 110.5t266.5 -110.5t110.5 -266.5t-110.5 -266.5t-266.5 -110.5t-266.5 110.5t-110.5 266.5zM777 365q0 147 -104 252t-251 105t-251 -105t-104 -252t104 -252t251 -105t251 105t104 252zM354 330v-184h-22v438h88q67 0 107 -34t40 -91
t-40.5 -93t-106.5 -36h-66zM354 350h68q54 0 88.5 30.5t34.5 78.5t-33.5 76.5t-89.5 28.5h-68v-214z" />
    <glyph glyph-name="endash" unicode="&#x2013;" horiz-adv-x="395" 
d="M305 242l-4 -22h-259l4 22h259z" />
    <glyph glyph-name="emdash" unicode="&#x2014;" horiz-adv-x="542" 
d="M452 242l-3 -22h-407l3 22h407z" />
    <glyph glyph-name="quoteleft" unicode="&#x2018;" horiz-adv-x="162" 
d="M182 730q-14 -15 -22.5 -30.5t-10.5 -23t-5 -27.5t-4 -25l-8 -51h-22l12 72q7 54 40 85h20z" />
    <glyph glyph-name="quoteright" unicode="&#x2019;" horiz-adv-x="138" 
d="M78 573q11 12 18.5 22.5t11.5 23t5.5 18.5t3.5 21.5t3 20.5l8 51h22l-12 -72q-10 -57 -40 -85h-20z" />
    <glyph glyph-name="quotesinglbase" unicode="&#x201a;" horiz-adv-x="158" 
d="M37 68l-12 -71q-13 -58 -41 -85h-19q6 7 10.5 14t7.5 12.5t6 13.5l4.5 12t3.5 13.5t3 13t2.5 14t2.5 13.5l10 50h22z" />
    <glyph glyph-name="quotedblleft" unicode="&#x201c;" horiz-adv-x="257" 
d="M281 730q-14 -15 -22.5 -30.5t-10.5 -23t-5 -27.5t-4 -25l-8 -51h-22l12 72q7 54 40 85h20zM182 730q-14 -15 -22.5 -30.5t-10.5 -23t-5 -27.5t-4 -25l-8 -51h-22l12 72q7 54 40 85h20z" />
    <glyph glyph-name="quotedblright" unicode="&#x201d;" horiz-adv-x="237" 
d="M177 573q11 12 18.5 22.5t11.5 23t5.5 18.5t3.5 21.5t3 20.5l8 51h22l-12 -72q-10 -57 -40 -85h-20zM78 573q11 12 18.5 22.5t11.5 23t5.5 18.5t3.5 21.5t3 20.5l8 51h22l-12 -72q-10 -57 -40 -85h-20z" />
    <glyph glyph-name="quotedblbase" unicode="&#x201e;" horiz-adv-x="249" 
d="M136 68l-12 -71q-13 -58 -41 -85h-19q6 7 10.5 14t7.5 12.5t6 13.5l4.5 12t3.5 13.5t3 13t2.5 14t2.5 13.5l10 50h22zM37 68l-12 -71q-13 -58 -41 -85h-19q6 7 10.5 14t7.5 12.5t6 13.5l4.5 12t3.5 13.5t3 13t2.5 14t2.5 13.5l10 50h22z" />
    <glyph glyph-name="dagger" unicode="&#x2020;" horiz-adv-x="503" 
d="M494 428l-4 -20h-221l-103 -587h-22l104 587h-221l4 20h221l53 302h22l-54 -302h221z" />
    <glyph glyph-name="daggerdbl" unicode="&#x2021;" horiz-adv-x="503" 
d="M495 430l-4 -19h-221l-43 -251h221l-6 -19h-220l-56 -320h-22l57 320h-221l5 19h221l43 251h-221l4 19h221l52 300h22l-53 -300h221z" />
    <glyph glyph-name="bullet" unicode="&#x2022;" horiz-adv-x="273" 
d="M198 379q0 -25 -18 -43t-44 -18t-43.5 18t-17.5 43t17.5 43t43.5 18t44 -18t18 -43z" />
    <glyph glyph-name="ellipsis" unicode="&#x2026;" horiz-adv-x="486" 
d="M379 84l-15 -84h-22l15 84h22zM209 84l-15 -84h-22l15 84h22zM39 84l-15 -84h-22l15 84h22z" />
    <glyph glyph-name="perthousand" unicode="&#x2030;" horiz-adv-x="1080" 
d="M92 503q0 95 52 166t120 71q55 0 85.5 -39t30.5 -99q0 -94 -52.5 -163.5t-120.5 -69.5q-58 0 -86.5 39t-28.5 95zM712 730l-665 -730h-26l665 730h26zM693 122q0 95 52 166t120 71q55 0 85.5 -39t30.5 -99q0 -94 -52.5 -163.5t-120.5 -69.5q-58 0 -86.5 39t-28.5 95z
M356 122q0 95 52 166t120 71q55 0 85.5 -39t30.5 -99q0 -94 -52.5 -163.5t-120.5 -69.5q-58 0 -86.5 39t-28.5 95zM114 504q0 -53 23.5 -84.5t69.5 -31.5q61 0 106.5 63t45.5 153q0 52 -25 84t-70 32q-61 0 -105.5 -63.5t-44.5 -152.5zM715 123q0 -53 23.5 -84.5t69.5 -31.5
q61 0 106.5 63t45.5 153q0 52 -25 84t-70 32q-61 0 -105.5 -63.5t-44.5 -152.5zM378 123q0 -53 23.5 -84.5t69.5 -31.5q61 0 106.5 63t45.5 153q0 52 -25 84t-70 32q-61 0 -105.5 -63.5t-44.5 -152.5z" />
    <glyph glyph-name="guilsinglleft" unicode="&#x2039;" horiz-adv-x="193" 
d="M166 331l-6 -23l-136 -106l96 -98l-2 -24l-120 114l4 22z" />
    <glyph glyph-name="guilsinglright" unicode="&#x203a;" horiz-adv-x="230" 
d="M194 218l-4 -22l-164 -115l6 23l136 106l-96 98l2 24z" />
    <glyph glyph-name="fraction" unicode="&#x2044;" horiz-adv-x="382" 
d="M490 730l-582 -730h-18l582 730h18z" />
    <glyph glyph-name="fraction" unicode="&#x2215;" horiz-adv-x="382" 
d="M490 730l-582 -730h-18l582 730h18z" />
    <glyph glyph-name="Euro" unicode="&#x20ac;" horiz-adv-x="550" 
d="M561 617l-19 -9q-39 114 -143 114q-93 0 -167.5 -82.5t-109.5 -209.5h282l-3 -20h-284q-11 -47 -16 -106h281l-3 -20h-279q-1 -10 -1 -30q0 -109 41 -177.5t124 -68.5q110 0 197 117l17 -13q-96 -124 -217 -124q-90 0 -137 74t-47 189v33h-70l3 20h68q3 53 15 106h-64
l3 20h67q37 138 117.5 225t180.5 87q124 0 164 -125z" />
    <glyph glyph-name="trademark" unicode="&#x2122;" horiz-adv-x="811" 
d="M369 302v428h22l163 -236l163 236h22v-428h-22v392l-155 -225h-16l-155 225v-392h-22zM291 710h-127v-408h-22v408h-115v20h264v-20z" />
    <glyph glyph-name="partialdiff" unicode="&#x2202;" horiz-adv-x="730" 
d="M387 710h-44v20h44v-20zM730 343h-22v44h22v-44zM387 343h-44v44h44v-44zM22 343h-22v44h22v-44zM387 0h-44v20h44v-20z" />
    <glyph glyph-name="product" unicode="&#x220f;" horiz-adv-x="730" 
d="M387 710h-44v20h44v-20zM730 343h-22v44h22v-44zM387 343h-44v44h44v-44zM22 343h-22v44h22v-44zM387 0h-44v20h44v-20z" />
    <glyph glyph-name="summation" unicode="&#x2211;" horiz-adv-x="730" 
d="M387 710h-44v20h44v-20zM730 343h-22v44h22v-44zM387 343h-44v44h44v-44zM22 343h-22v44h22v-44zM387 0h-44v20h44v-20z" />
    <glyph glyph-name="minus" unicode="&#x2212;" horiz-adv-x="483" 
d="M444 320h-409l4 20h409z" />
    <glyph glyph-name="radical" unicode="&#x221a;" horiz-adv-x="505" 
d="M538 730l-414 -759h-4l-112 345h24l93 -288l3 -8l4 8l383 702h23z" />
    <glyph glyph-name="infinity" unicode="&#x221e;" horiz-adv-x="506" 
d="M476 593l-14 -80h-21l14 80h21zM-13 -179l92 560h-74l4 20h74l44 265q13 74 82 74h21l-3 -21h-22q-25 0 -39 -13t-20 -51l-42 -254h154l44 265q13 74 82 74h21l-3 -21h-22q-25 0 -39 -13t-20 -51l-42 -254h68l-5 -20h-67l-92 -560h-21l92 560h-154l-92 -560h-21zM444 401
l-67 -401h-20l66 401h21z" />
    <glyph glyph-name="integral" unicode="&#x222b;" horiz-adv-x="730" 
d="M387 710h-44v20h44v-20zM730 343h-22v44h22v-44zM387 343h-44v44h44v-44zM22 343h-22v44h22v-44zM387 0h-44v20h44v-20z" />
    <glyph glyph-name="approxequal" unicode="&#x2248;" horiz-adv-x="730" 
d="M387 710h-44v20h44v-20zM730 343h-22v44h22v-44zM387 343h-44v44h44v-44zM22 343h-22v44h22v-44zM387 0h-44v20h44v-20z" />
    <glyph glyph-name="notequal" unicode="&#x2260;" horiz-adv-x="350" 
d="M-13 -179l92 560h-74l4 20h74l44 265q13 74 82 74h21l-3 -21h-22q-25 0 -39 -13t-20 -51l-42 -254h154l44 265q13 74 82 74h21l-3 -21h-22q-25 0 -39 -13t-20 -51l-42 -254h68l-5 -20h-67l-92 -560h-21l92 560h-154l-92 -560h-21z" />
    <glyph glyph-name="lessequal" unicode="&#x2264;" horiz-adv-x="730" 
d="M387 710h-44v20h44v-20zM730 343h-22v44h22v-44zM387 343h-44v44h44v-44zM22 343h-22v44h22v-44zM387 0h-44v20h44v-20z" />
    <glyph glyph-name="greaterequal" unicode="&#x2265;" horiz-adv-x="730" 
d="M387 710h-44v20h44v-20zM730 343h-22v44h22v-44zM387 343h-44v44h44v-44zM22 343h-22v44h22v-44zM387 0h-44v20h44v-20z" />
    <glyph glyph-name="lozenge" unicode="&#x25ca;" horiz-adv-x="730" 
d="M387 710h-44v20h44v-20zM730 343h-22v44h22v-44zM387 343h-44v44h44v-44zM22 343h-22v44h22v-44zM387 0h-44v20h44v-20z" />
    <glyph glyph-name="apple" unicode="&#xf8ff;" horiz-adv-x="730" 
d="M387 710h-44v20h44v-20zM730 343h-22v44h22v-44zM387 343h-44v44h44v-44zM22 343h-22v44h22v-44zM387 0h-44v20h44v-20z" />
    <glyph glyph-name="NUL" horiz-adv-x="0" 
 />
    </font>
</defs>
</svg>
